M48
; DRILL file {KiCad (6.0.8)} date Mon Jan 16 16:59:42 2023
; FORMAT={-:-/ absolute / metric / decimal}
; #@! TF.CreationDate,2023-01-16T16:59:42+01:00
; #@! TF.GenerationSoftware,Kicad,Pcbnew,(6.0.8)
; #@! TF.FileFunction,NonPlated,1,2,NPTH
FMAT,2
METRIC
; #@! TA.AperFunction,NonPlated,NPTH,ComponentDrill
T1C1.900
; #@! TA.AperFunction,NonPlated,NPTH,ComponentDrill
T2C3.000
; #@! TA.AperFunction,NonPlated,NPTH,ComponentDrill
T3C3.990
%
G90
G05
T1
X64.706Y-52.705
X64.706Y-71.755
X64.706Y-90.805
X64.706Y-109.855
X75.706Y-52.705
X75.706Y-71.755
X75.706Y-90.805
X75.706Y-109.855
X83.756Y-52.705
X83.756Y-71.755
X83.756Y-90.805
X83.756Y-109.855
X94.756Y-52.705
X94.756Y-71.755
X94.756Y-90.805
X94.756Y-109.855
X102.806Y-52.705
X102.806Y-71.755
X102.806Y-90.805
X102.806Y-109.855
X113.806Y-52.705
X113.806Y-71.755
X113.806Y-90.805
X113.806Y-109.855
X121.856Y-52.705
X121.856Y-71.755
X121.856Y-90.805
X121.856Y-109.855
X132.856Y-52.705
X132.856Y-71.755
X132.856Y-90.805
X132.856Y-109.855
X140.906Y-52.705
X140.906Y-71.755
X140.906Y-90.805
X140.906Y-109.855
X151.906Y-52.705
X151.906Y-71.755
X151.906Y-90.805
X151.906Y-109.855
X159.956Y-52.705
X159.956Y-71.755
X159.956Y-90.805
X159.956Y-109.855
X170.956Y-52.705
X170.956Y-71.755
X170.956Y-90.805
X170.956Y-109.855
X179.006Y-52.705
X179.006Y-71.755
X179.006Y-90.805
X179.006Y-109.855
X190.006Y-52.705
X190.006Y-71.755
X190.006Y-90.805
X190.006Y-109.855
X198.056Y-52.705
X198.056Y-71.755
X198.056Y-90.805
X198.056Y-109.855
X209.056Y-52.705
X209.056Y-71.755
X209.056Y-90.805
X209.056Y-109.855
T2
X66.396Y-50.165
X66.396Y-69.215
X66.396Y-88.265
X66.396Y-107.315
X70.206Y-46.755
X70.206Y-65.805
X70.206Y-84.855
X70.206Y-103.905
X72.746Y-47.625
X72.746Y-66.675
X72.746Y-85.725
X72.746Y-104.775
X75.206Y-48.955
X75.206Y-68.005
X75.206Y-87.055
X75.206Y-106.105
X85.446Y-50.165
X85.446Y-69.215
X85.446Y-88.265
X85.446Y-107.315
X89.256Y-46.755
X89.256Y-65.805
X89.256Y-84.855
X89.256Y-103.905
X91.796Y-47.625
X91.796Y-66.675
X91.796Y-85.725
X91.796Y-104.775
X94.256Y-48.955
X94.256Y-68.005
X94.256Y-87.055
X94.256Y-106.105
X104.496Y-50.165
X104.496Y-69.215
X104.496Y-88.265
X104.496Y-107.315
X108.306Y-46.755
X108.306Y-65.805
X108.306Y-84.855
X108.306Y-103.905
X110.846Y-47.625
X110.846Y-66.675
X110.846Y-85.725
X110.846Y-104.775
X113.306Y-48.955
X113.306Y-68.005
X113.306Y-87.055
X113.306Y-106.105
X123.546Y-50.165
X123.546Y-69.215
X123.546Y-88.265
X123.546Y-107.315
X127.356Y-46.755
X127.356Y-65.805
X127.356Y-84.855
X127.356Y-103.905
X129.896Y-47.625
X129.896Y-66.675
X129.896Y-85.725
X129.896Y-104.775
X132.356Y-48.955
X132.356Y-68.005
X132.356Y-87.055
X132.356Y-106.105
X142.596Y-50.165
X142.596Y-69.215
X142.596Y-88.265
X142.596Y-107.315
X146.406Y-46.755
X146.406Y-65.805
X146.406Y-84.855
X146.406Y-103.905
X148.946Y-47.625
X148.946Y-66.675
X148.946Y-85.725
X148.946Y-104.775
X151.406Y-48.955
X151.406Y-68.005
X151.406Y-87.055
X151.406Y-106.105
X161.646Y-50.165
X161.646Y-69.215
X161.646Y-88.265
X161.646Y-107.315
X165.456Y-46.755
X165.456Y-65.805
X165.456Y-84.855
X165.456Y-103.905
X167.996Y-47.625
X167.996Y-66.675
X167.996Y-85.725
X167.996Y-104.775
X170.456Y-48.955
X170.456Y-68.005
X170.456Y-87.055
X170.456Y-106.105
X180.696Y-50.165
X180.696Y-69.215
X180.696Y-88.265
X180.696Y-107.315
X184.506Y-46.755
X184.506Y-65.805
X184.506Y-84.855
X184.506Y-103.905
X187.046Y-47.625
X187.046Y-66.675
X187.046Y-85.725
X187.046Y-104.775
X189.506Y-48.955
X189.506Y-68.005
X189.506Y-87.055
X189.506Y-106.105
X199.746Y-50.165
X199.746Y-69.215
X199.746Y-88.265
X199.746Y-107.315
X203.556Y-46.755
X203.556Y-65.805
X203.556Y-84.855
X203.556Y-103.905
X206.096Y-47.625
X206.096Y-66.675
X206.096Y-85.725
X206.096Y-104.775
X208.556Y-48.955
X208.556Y-68.005
X208.556Y-87.055
X208.556Y-106.105
T3
X70.206Y-52.705
X70.206Y-71.755
X70.206Y-90.805
X70.206Y-109.855
X89.256Y-52.705
X89.256Y-71.755
X89.256Y-90.805
X89.256Y-109.855
X108.306Y-52.705
X108.306Y-71.755
X108.306Y-90.805
X108.306Y-109.855
X127.356Y-52.705
X127.356Y-71.755
X127.356Y-90.805
X127.356Y-109.855
X146.406Y-52.705
X146.406Y-71.755
X146.406Y-90.805
X146.406Y-109.855
X165.456Y-52.705
X165.456Y-71.755
X165.456Y-90.805
X165.456Y-109.855
X184.506Y-52.705
X184.506Y-71.755
X184.506Y-90.805
X184.506Y-109.855
X203.556Y-52.705
X203.556Y-71.755
X203.556Y-90.805
X203.556Y-109.855
T0
M30
