%TF.GenerationSoftware,KiCad,Pcbnew,(6.0.8)*%
%TF.CreationDate,2023-01-16T16:58:48+01:00*%
%TF.ProjectId,The Macruwu 2.0,54686520-4d61-4637-9275-777520322e30,rev?*%
%TF.SameCoordinates,Original*%
%TF.FileFunction,Soldermask,Top*%
%TF.FilePolarity,Negative*%
%FSLAX46Y46*%
G04 Gerber Fmt 4.6, Leading zero omitted, Abs format (unit mm)*
G04 Created by KiCad (PCBNEW (6.0.8)) date 2023-01-16 16:58:48*
%MOMM*%
%LPD*%
G01*
G04 APERTURE LIST*
G04 Aperture macros list*
%AMRoundRect*
0 Rectangle with rounded corners*
0 $1 Rounding radius*
0 $2 $3 $4 $5 $6 $7 $8 $9 X,Y pos of 4 corners*
0 Add a 4 corners polygon primitive as box body*
4,1,4,$2,$3,$4,$5,$6,$7,$8,$9,$2,$3,0*
0 Add four circle primitives for the rounded corners*
1,1,$1+$1,$2,$3*
1,1,$1+$1,$4,$5*
1,1,$1+$1,$6,$7*
1,1,$1+$1,$8,$9*
0 Add four rect primitives between the rounded corners*
20,1,$1+$1,$2,$3,$4,$5,0*
20,1,$1+$1,$4,$5,$6,$7,0*
20,1,$1+$1,$6,$7,$8,$9,0*
20,1,$1+$1,$8,$9,$2,$3,0*%
G04 Aperture macros list end*
%ADD10C,1.900000*%
%ADD11C,3.990000*%
%ADD12C,3.000000*%
%ADD13O,2.748280X1.998980*%
%ADD14O,1.016000X2.032000*%
%ADD15C,1.143000*%
%ADD16RoundRect,0.237500X0.237500X-0.250000X0.237500X0.250000X-0.237500X0.250000X-0.237500X-0.250000X0*%
%ADD17R,1.800000X1.650000*%
%ADD18R,1.000000X1.000000*%
%ADD19O,1.000000X1.000000*%
G04 APERTURE END LIST*
D10*
%TO.C,U3*%
X113806000Y-52705000D03*
X102806000Y-52705000D03*
D11*
X108306000Y-52705000D03*
D12*
X113306000Y-48955000D03*
X110846000Y-47625000D03*
X104496000Y-50165000D03*
X108306000Y-46755000D03*
%TD*%
%TO.C,U15*%
X184506000Y-65805000D03*
X187046000Y-66675000D03*
X189506000Y-68005000D03*
D11*
X184506000Y-71755000D03*
D10*
X179006000Y-71755000D03*
D12*
X180696000Y-69215000D03*
D10*
X190006000Y-71755000D03*
%TD*%
D12*
%TO.C,U14*%
X161646000Y-69215000D03*
X165456000Y-65805000D03*
D11*
X165456000Y-71755000D03*
D12*
X170456000Y-68005000D03*
D10*
X159956000Y-71755000D03*
X170956000Y-71755000D03*
D12*
X167996000Y-66675000D03*
%TD*%
%TO.C,U8*%
X199746000Y-50165000D03*
X206096000Y-47625000D03*
D10*
X209056000Y-52705000D03*
X198056000Y-52705000D03*
D12*
X208556000Y-48955000D03*
D11*
X203556000Y-52705000D03*
D12*
X203556000Y-46755000D03*
%TD*%
D10*
%TO.C,U5*%
X151906000Y-52705000D03*
X140906000Y-52705000D03*
D11*
X146406000Y-52705000D03*
D12*
X146406000Y-46755000D03*
X148946000Y-47625000D03*
X151406000Y-48955000D03*
X142596000Y-50165000D03*
%TD*%
D10*
%TO.C,U22*%
X170956000Y-90805000D03*
D11*
X165456000Y-90805000D03*
D12*
X170456000Y-87055000D03*
D10*
X159956000Y-90805000D03*
D12*
X161646000Y-88265000D03*
X167996000Y-85725000D03*
X165456000Y-84855000D03*
%TD*%
D13*
%TO.C,U33*%
X214595710Y-34656490D03*
X214595710Y-37196490D03*
X214595710Y-39736490D03*
X214595710Y-42276490D03*
X214595710Y-44816490D03*
X214595710Y-47356490D03*
X214595710Y-49896490D03*
X230760270Y-49896490D03*
X230760270Y-47356490D03*
X230760270Y-44816490D03*
X230760270Y-42276490D03*
X230760270Y-39736490D03*
X230760270Y-37196490D03*
X230760270Y-34656490D03*
D14*
X221462590Y-50974310D03*
X224012590Y-50974310D03*
D15*
X221461393Y-33970123D03*
X224001393Y-33970123D03*
X221461393Y-36510123D03*
X224001393Y-36510123D03*
%TD*%
D12*
%TO.C,U16*%
X203556000Y-65805000D03*
X199746000Y-69215000D03*
D10*
X198056000Y-71755000D03*
D11*
X203556000Y-71755000D03*
D12*
X206096000Y-66675000D03*
X208556000Y-68005000D03*
D10*
X209056000Y-71755000D03*
%TD*%
%TO.C,U18*%
X83756000Y-90805000D03*
D12*
X91796000Y-85725000D03*
X89256000Y-84855000D03*
D10*
X94756000Y-90805000D03*
D11*
X89256000Y-90805000D03*
D12*
X94256000Y-87055000D03*
X85446000Y-88265000D03*
%TD*%
%TO.C,U28*%
X132356000Y-106105000D03*
X123546000Y-107315000D03*
X129896000Y-104775000D03*
D10*
X132856000Y-109855000D03*
D11*
X127356000Y-109855000D03*
D12*
X127356000Y-103905000D03*
D10*
X121856000Y-109855000D03*
%TD*%
D16*
%TO.C,R3*%
X73660000Y-38504500D03*
X73660000Y-36679500D03*
%TD*%
D12*
%TO.C,U17*%
X72746000Y-85725000D03*
D10*
X75706000Y-90805000D03*
D11*
X70206000Y-90805000D03*
D10*
X64706000Y-90805000D03*
D12*
X66396000Y-88265000D03*
X75206000Y-87055000D03*
X70206000Y-84855000D03*
%TD*%
%TO.C,U20*%
X127356000Y-84855000D03*
D10*
X121856000Y-90805000D03*
D12*
X129896000Y-85725000D03*
X132356000Y-87055000D03*
D11*
X127356000Y-90805000D03*
D12*
X123546000Y-88265000D03*
D10*
X132856000Y-90805000D03*
%TD*%
%TO.C,U32*%
X198056000Y-109855000D03*
D12*
X206096000Y-104775000D03*
X203556000Y-103905000D03*
X199746000Y-107315000D03*
D11*
X203556000Y-109855000D03*
D12*
X208556000Y-106105000D03*
D10*
X209056000Y-109855000D03*
%TD*%
%TO.C,U2*%
X83756000Y-52705000D03*
D12*
X91796000Y-47625000D03*
X89256000Y-46755000D03*
D11*
X89256000Y-52705000D03*
D12*
X94256000Y-48955000D03*
D10*
X94756000Y-52705000D03*
D12*
X85446000Y-50165000D03*
%TD*%
%TO.C,U9*%
X72746000Y-66675000D03*
X70206000Y-65805000D03*
D10*
X64706000Y-71755000D03*
D12*
X75206000Y-68005000D03*
X66396000Y-69215000D03*
D11*
X70206000Y-71755000D03*
D10*
X75706000Y-71755000D03*
%TD*%
D12*
%TO.C,U10*%
X94256000Y-68005000D03*
X89256000Y-65805000D03*
X91796000Y-66675000D03*
D11*
X89256000Y-71755000D03*
D12*
X85446000Y-69215000D03*
D10*
X83756000Y-71755000D03*
X94756000Y-71755000D03*
%TD*%
D12*
%TO.C,U29*%
X142596000Y-107315000D03*
D10*
X151906000Y-109855000D03*
D11*
X146406000Y-109855000D03*
D10*
X140906000Y-109855000D03*
D12*
X151406000Y-106105000D03*
X148946000Y-104775000D03*
X146406000Y-103905000D03*
%TD*%
%TO.C,U25*%
X70206000Y-103905000D03*
D10*
X64706000Y-109855000D03*
D12*
X75206000Y-106105000D03*
X66396000Y-107315000D03*
D10*
X75706000Y-109855000D03*
D11*
X70206000Y-109855000D03*
D12*
X72746000Y-104775000D03*
%TD*%
D17*
%TO.C,S1*%
X62320000Y-41290000D03*
X68870000Y-33640000D03*
X65070000Y-41290000D03*
X62320000Y-33640000D03*
X71070000Y-33640000D03*
%TD*%
D10*
%TO.C,U23*%
X179006000Y-90805000D03*
D12*
X180696000Y-88265000D03*
D11*
X184506000Y-90805000D03*
D12*
X187046000Y-85725000D03*
D10*
X190006000Y-90805000D03*
D12*
X184506000Y-84855000D03*
X189506000Y-87055000D03*
%TD*%
%TO.C,U31*%
X189506000Y-106105000D03*
D10*
X190006000Y-109855000D03*
D12*
X180696000Y-107315000D03*
D11*
X184506000Y-109855000D03*
D10*
X179006000Y-109855000D03*
D12*
X184506000Y-103905000D03*
X187046000Y-104775000D03*
%TD*%
%TO.C,U6*%
X167996000Y-47625000D03*
X170456000Y-48955000D03*
X165456000Y-46755000D03*
D10*
X170956000Y-52705000D03*
D12*
X161646000Y-50165000D03*
D10*
X159956000Y-52705000D03*
D11*
X165456000Y-52705000D03*
%TD*%
D18*
%TO.C,J2*%
X225557000Y-89027000D03*
D19*
X226827000Y-89027000D03*
X228097000Y-89027000D03*
X229367000Y-89027000D03*
%TD*%
D10*
%TO.C,U12*%
X121856000Y-71755000D03*
D12*
X132356000Y-68005000D03*
X123546000Y-69215000D03*
X127356000Y-65805000D03*
D11*
X127356000Y-71755000D03*
D12*
X129896000Y-66675000D03*
D10*
X132856000Y-71755000D03*
%TD*%
D11*
%TO.C,U4*%
X127356000Y-52705000D03*
D10*
X121856000Y-52705000D03*
X132856000Y-52705000D03*
D12*
X127356000Y-46755000D03*
X129896000Y-47625000D03*
X132356000Y-48955000D03*
X123546000Y-50165000D03*
%TD*%
%TO.C,U7*%
X187046000Y-47625000D03*
X180696000Y-50165000D03*
D10*
X190006000Y-52705000D03*
D12*
X184506000Y-46755000D03*
X189506000Y-48955000D03*
D10*
X179006000Y-52705000D03*
D11*
X184506000Y-52705000D03*
%TD*%
D16*
%TO.C,R4*%
X233680000Y-44092500D03*
X233680000Y-42267500D03*
%TD*%
D18*
%TO.C,J3*%
X225557000Y-93726000D03*
D19*
X226827000Y-93726000D03*
X228097000Y-93726000D03*
X229367000Y-93726000D03*
%TD*%
D17*
%TO.C,S2*%
X245274000Y-33640000D03*
X238724000Y-41290000D03*
X242524000Y-33640000D03*
X245274000Y-41290000D03*
X236524000Y-41290000D03*
%TD*%
D12*
%TO.C,U19*%
X108306000Y-84855000D03*
D10*
X113806000Y-90805000D03*
D12*
X104496000Y-88265000D03*
D11*
X108306000Y-90805000D03*
D12*
X110846000Y-85725000D03*
D10*
X102806000Y-90805000D03*
D12*
X113306000Y-87055000D03*
%TD*%
D18*
%TO.C,J1*%
X225557000Y-83820000D03*
D19*
X226827000Y-83820000D03*
X228097000Y-83820000D03*
X229367000Y-83820000D03*
%TD*%
D10*
%TO.C,U30*%
X170956000Y-109855000D03*
D12*
X167996000Y-104775000D03*
X161646000Y-107315000D03*
X170456000Y-106105000D03*
D11*
X165456000Y-109855000D03*
D10*
X159956000Y-109855000D03*
D12*
X165456000Y-103905000D03*
%TD*%
%TO.C,U1*%
X75206000Y-48955000D03*
X66396000Y-50165000D03*
X72746000Y-47625000D03*
D10*
X64706000Y-52705000D03*
D11*
X70206000Y-52705000D03*
D12*
X70206000Y-46755000D03*
D10*
X75706000Y-52705000D03*
%TD*%
D11*
%TO.C,U11*%
X108306000Y-71755000D03*
D12*
X108306000Y-65805000D03*
X110846000Y-66675000D03*
X104496000Y-69215000D03*
D10*
X102806000Y-71755000D03*
X113806000Y-71755000D03*
D12*
X113306000Y-68005000D03*
%TD*%
%TO.C,U26*%
X89256000Y-103905000D03*
D10*
X83756000Y-109855000D03*
D12*
X94256000Y-106105000D03*
X85446000Y-107315000D03*
D11*
X89256000Y-109855000D03*
D12*
X91796000Y-104775000D03*
D10*
X94756000Y-109855000D03*
%TD*%
D11*
%TO.C,U24*%
X203556000Y-90805000D03*
D10*
X209056000Y-90805000D03*
D12*
X199746000Y-88265000D03*
X203556000Y-84855000D03*
X208556000Y-87055000D03*
X206096000Y-85725000D03*
D10*
X198056000Y-90805000D03*
%TD*%
D12*
%TO.C,U21*%
X148946000Y-85725000D03*
D10*
X151906000Y-90805000D03*
X140906000Y-90805000D03*
D12*
X142596000Y-88265000D03*
D11*
X146406000Y-90805000D03*
D12*
X146406000Y-84855000D03*
X151406000Y-87055000D03*
%TD*%
D11*
%TO.C,U27*%
X108306000Y-109855000D03*
D12*
X104496000Y-107315000D03*
X108306000Y-103905000D03*
D10*
X113806000Y-109855000D03*
D12*
X113306000Y-106105000D03*
D10*
X102806000Y-109855000D03*
D12*
X110846000Y-104775000D03*
%TD*%
D11*
%TO.C,U13*%
X146406000Y-71755000D03*
D10*
X151906000Y-71755000D03*
X140906000Y-71755000D03*
D12*
X142596000Y-69215000D03*
X148946000Y-66675000D03*
X151406000Y-68005000D03*
X146406000Y-65805000D03*
%TD*%
M02*
