M48
; DRILL file {KiCad (6.0.8)} date Mon Jan 16 16:59:42 2023
; FORMAT={-:-/ absolute / metric / decimal}
; #@! TF.CreationDate,2023-01-16T16:59:42+01:00
; #@! TF.GenerationSoftware,Kicad,Pcbnew,(6.0.8)
; #@! TF.FileFunction,Plated,1,2,PTH
FMAT,2
METRIC
; #@! TA.AperFunction,Plated,PTH,ViaDrill
T1C0.400
; #@! TA.AperFunction,Plated,PTH,ComponentDrill
T2C0.650
%
G90
G05
T1
X61.214Y-74.422
X61.214Y-93.345
X61.214Y-112.395
X64.77Y-77.216
X64.77Y-96.266
X65.024Y-74.422
X65.024Y-115.316
X65.659Y-38.354
X65.786Y-35.179
X67.437Y-112.395
X67.564Y-55.499
X67.564Y-93.345
X69.469Y-35.306
X76.2Y-34.671
X86.487Y-55.499
X86.487Y-74.422
X86.487Y-93.345
X86.487Y-112.395
X105.41Y-55.499
X105.537Y-74.422
X105.537Y-93.345
X105.537Y-112.395
X124.587Y-55.499
X124.587Y-74.422
X124.587Y-93.345
X124.587Y-112.395
X143.637Y-93.345
X143.637Y-112.395
X143.764Y-55.499
X143.764Y-74.422
X162.687Y-55.499
X162.687Y-74.422
X162.687Y-93.345
X162.687Y-112.395
X181.737Y-55.499
X181.737Y-74.422
X181.864Y-93.345
X181.864Y-112.395
X200.787Y-55.499
X200.787Y-74.422
X200.787Y-112.395
X200.914Y-93.345
X208.902Y-56.655
X208.902Y-75.705
X208.902Y-94.755
X219.456Y-45.72
X220.218Y-44.831
X220.345Y-53.467
X220.472Y-91.948
X221.361Y-54.356
X221.631Y-45.212
X221.996Y-90.678
X222.631Y-44.323
X224.79Y-62.357
X225.679Y-96.266
X226.29Y-77.748
X227.965Y-37.211
X227.965Y-40.64
X227.965Y-46.355
X228.219Y-68.199
X228.6Y-36.068
X228.6Y-38.227
X228.981Y-69.342
X230.505Y-78.486
X233.045Y-36.068
X233.045Y-38.227
X233.172Y-47.371
X233.553Y-37.211
X235.204Y-33.274
X236.474Y-78.486
X237.109Y-43.815
X240.284Y-43.815
X241.808Y-36.068
X243.078Y-43.942
X247.269Y-33.655
T2
X225.557Y-83.82
X225.557Y-89.027
X225.557Y-93.726
X226.827Y-83.82
X226.827Y-89.027
X226.827Y-93.726
X228.097Y-83.82
X228.097Y-89.027
X228.097Y-93.726
X229.367Y-83.82
X229.367Y-89.027
X229.367Y-93.726
T0
M30
