%TF.GenerationSoftware,KiCad,Pcbnew,(6.0.8)*%
%TF.CreationDate,2023-01-16T16:58:48+01:00*%
%TF.ProjectId,The Macruwu 2.0,54686520-4d61-4637-9275-777520322e30,rev?*%
%TF.SameCoordinates,Original*%
%TF.FileFunction,Legend,Bot*%
%TF.FilePolarity,Positive*%
%FSLAX46Y46*%
G04 Gerber Fmt 4.6, Leading zero omitted, Abs format (unit mm)*
G04 Created by KiCad (PCBNEW (6.0.8)) date 2023-01-16 16:58:48*
%MOMM*%
%LPD*%
G01*
G04 APERTURE LIST*
G04 Aperture macros list*
%AMRoundRect*
0 Rectangle with rounded corners*
0 $1 Rounding radius*
0 $2 $3 $4 $5 $6 $7 $8 $9 X,Y pos of 4 corners*
0 Add a 4 corners polygon primitive as box body*
4,1,4,$2,$3,$4,$5,$6,$7,$8,$9,$2,$3,0*
0 Add four circle primitives for the rounded corners*
1,1,$1+$1,$2,$3*
1,1,$1+$1,$4,$5*
1,1,$1+$1,$6,$7*
1,1,$1+$1,$8,$9*
0 Add four rect primitives between the rounded corners*
20,1,$1+$1,$2,$3,$4,$5,0*
20,1,$1+$1,$4,$5,$6,$7,0*
20,1,$1+$1,$6,$7,$8,$9,0*
20,1,$1+$1,$8,$9,$2,$3,0*%
G04 Aperture macros list end*
%ADD10C,0.150000*%
%ADD11C,0.254000*%
%ADD12C,0.200000*%
%ADD13C,0.120000*%
%ADD14C,1.900000*%
%ADD15C,3.990000*%
%ADD16C,3.000000*%
%ADD17R,2.600000X2.600000*%
%ADD18R,2.540000X2.540000*%
%ADD19R,2.000000X0.820000*%
%ADD20R,1.000000X1.000000*%
%ADD21O,1.000000X1.000000*%
%ADD22RoundRect,0.237500X-0.300000X-0.237500X0.300000X-0.237500X0.300000X0.237500X-0.300000X0.237500X0*%
%ADD23RoundRect,0.237500X0.250000X0.237500X-0.250000X0.237500X-0.250000X-0.237500X0.250000X-0.237500X0*%
%ADD24RoundRect,0.237500X-0.237500X0.250000X-0.237500X-0.250000X0.237500X-0.250000X0.237500X0.250000X0*%
%ADD25R,0.450000X1.475000*%
%ADD26RoundRect,0.237500X0.237500X-0.250000X0.237500X0.250000X-0.237500X0.250000X-0.237500X-0.250000X0*%
%ADD27RoundRect,0.237500X-0.250000X-0.237500X0.250000X-0.237500X0.250000X0.237500X-0.250000X0.237500X0*%
%ADD28RoundRect,0.237500X0.300000X0.237500X-0.300000X0.237500X-0.300000X-0.237500X0.300000X-0.237500X0*%
G04 APERTURE END LIST*
D10*
%TO.C,C9*%
X64403666Y-77479142D02*
X64451285Y-77526761D01*
X64594142Y-77574380D01*
X64689380Y-77574380D01*
X64832238Y-77526761D01*
X64927476Y-77431523D01*
X64975095Y-77336285D01*
X65022714Y-77145809D01*
X65022714Y-77002952D01*
X64975095Y-76812476D01*
X64927476Y-76717238D01*
X64832238Y-76622000D01*
X64689380Y-76574380D01*
X64594142Y-76574380D01*
X64451285Y-76622000D01*
X64403666Y-76669619D01*
X63927476Y-77574380D02*
X63737000Y-77574380D01*
X63641761Y-77526761D01*
X63594142Y-77479142D01*
X63498904Y-77336285D01*
X63451285Y-77145809D01*
X63451285Y-76764857D01*
X63498904Y-76669619D01*
X63546523Y-76622000D01*
X63641761Y-76574380D01*
X63832238Y-76574380D01*
X63927476Y-76622000D01*
X63975095Y-76669619D01*
X64022714Y-76764857D01*
X64022714Y-77002952D01*
X63975095Y-77098190D01*
X63927476Y-77145809D01*
X63832238Y-77193428D01*
X63641761Y-77193428D01*
X63546523Y-77145809D01*
X63498904Y-77098190D01*
X63451285Y-77002952D01*
%TO.C,R5*%
X227369666Y-78270380D02*
X227703000Y-77794190D01*
X227941095Y-78270380D02*
X227941095Y-77270380D01*
X227560142Y-77270380D01*
X227464904Y-77318000D01*
X227417285Y-77365619D01*
X227369666Y-77460857D01*
X227369666Y-77603714D01*
X227417285Y-77698952D01*
X227464904Y-77746571D01*
X227560142Y-77794190D01*
X227941095Y-77794190D01*
X226464904Y-77270380D02*
X226941095Y-77270380D01*
X226988714Y-77746571D01*
X226941095Y-77698952D01*
X226845857Y-77651333D01*
X226607761Y-77651333D01*
X226512523Y-77698952D01*
X226464904Y-77746571D01*
X226417285Y-77841809D01*
X226417285Y-78079904D01*
X226464904Y-78175142D01*
X226512523Y-78222761D01*
X226607761Y-78270380D01*
X226845857Y-78270380D01*
X226941095Y-78222761D01*
X226988714Y-78175142D01*
%TO.C,C7*%
X178677166Y-58429142D02*
X178724785Y-58476761D01*
X178867642Y-58524380D01*
X178962880Y-58524380D01*
X179105738Y-58476761D01*
X179200976Y-58381523D01*
X179248595Y-58286285D01*
X179296214Y-58095809D01*
X179296214Y-57952952D01*
X179248595Y-57762476D01*
X179200976Y-57667238D01*
X179105738Y-57572000D01*
X178962880Y-57524380D01*
X178867642Y-57524380D01*
X178724785Y-57572000D01*
X178677166Y-57619619D01*
X178343833Y-57524380D02*
X177677166Y-57524380D01*
X178105738Y-58524380D01*
%TO.C,C2*%
X83427166Y-58429142D02*
X83474785Y-58476761D01*
X83617642Y-58524380D01*
X83712880Y-58524380D01*
X83855738Y-58476761D01*
X83950976Y-58381523D01*
X83998595Y-58286285D01*
X84046214Y-58095809D01*
X84046214Y-57952952D01*
X83998595Y-57762476D01*
X83950976Y-57667238D01*
X83855738Y-57572000D01*
X83712880Y-57524380D01*
X83617642Y-57524380D01*
X83474785Y-57572000D01*
X83427166Y-57619619D01*
X83046214Y-57619619D02*
X82998595Y-57572000D01*
X82903357Y-57524380D01*
X82665261Y-57524380D01*
X82570023Y-57572000D01*
X82522404Y-57619619D01*
X82474785Y-57714857D01*
X82474785Y-57810095D01*
X82522404Y-57952952D01*
X83093833Y-58524380D01*
X82474785Y-58524380D01*
%TO.C,C20*%
X122029857Y-96529142D02*
X122077476Y-96576761D01*
X122220333Y-96624380D01*
X122315571Y-96624380D01*
X122458428Y-96576761D01*
X122553666Y-96481523D01*
X122601285Y-96386285D01*
X122648904Y-96195809D01*
X122648904Y-96052952D01*
X122601285Y-95862476D01*
X122553666Y-95767238D01*
X122458428Y-95672000D01*
X122315571Y-95624380D01*
X122220333Y-95624380D01*
X122077476Y-95672000D01*
X122029857Y-95719619D01*
X121648904Y-95719619D02*
X121601285Y-95672000D01*
X121506047Y-95624380D01*
X121267952Y-95624380D01*
X121172714Y-95672000D01*
X121125095Y-95719619D01*
X121077476Y-95814857D01*
X121077476Y-95910095D01*
X121125095Y-96052952D01*
X121696523Y-96624380D01*
X121077476Y-96624380D01*
X120458428Y-95624380D02*
X120363190Y-95624380D01*
X120267952Y-95672000D01*
X120220333Y-95719619D01*
X120172714Y-95814857D01*
X120125095Y-96005333D01*
X120125095Y-96243428D01*
X120172714Y-96433904D01*
X120220333Y-96529142D01*
X120267952Y-96576761D01*
X120363190Y-96624380D01*
X120458428Y-96624380D01*
X120553666Y-96576761D01*
X120601285Y-96529142D01*
X120648904Y-96433904D01*
X120696523Y-96243428D01*
X120696523Y-96005333D01*
X120648904Y-95814857D01*
X120601285Y-95719619D01*
X120553666Y-95672000D01*
X120458428Y-95624380D01*
%TO.C,C24*%
X198229857Y-96529142D02*
X198277476Y-96576761D01*
X198420333Y-96624380D01*
X198515571Y-96624380D01*
X198658428Y-96576761D01*
X198753666Y-96481523D01*
X198801285Y-96386285D01*
X198848904Y-96195809D01*
X198848904Y-96052952D01*
X198801285Y-95862476D01*
X198753666Y-95767238D01*
X198658428Y-95672000D01*
X198515571Y-95624380D01*
X198420333Y-95624380D01*
X198277476Y-95672000D01*
X198229857Y-95719619D01*
X197848904Y-95719619D02*
X197801285Y-95672000D01*
X197706047Y-95624380D01*
X197467952Y-95624380D01*
X197372714Y-95672000D01*
X197325095Y-95719619D01*
X197277476Y-95814857D01*
X197277476Y-95910095D01*
X197325095Y-96052952D01*
X197896523Y-96624380D01*
X197277476Y-96624380D01*
X196420333Y-95957714D02*
X196420333Y-96624380D01*
X196658428Y-95576761D02*
X196896523Y-96291047D01*
X196277476Y-96291047D01*
%TO.C,C18*%
X83929857Y-96529142D02*
X83977476Y-96576761D01*
X84120333Y-96624380D01*
X84215571Y-96624380D01*
X84358428Y-96576761D01*
X84453666Y-96481523D01*
X84501285Y-96386285D01*
X84548904Y-96195809D01*
X84548904Y-96052952D01*
X84501285Y-95862476D01*
X84453666Y-95767238D01*
X84358428Y-95672000D01*
X84215571Y-95624380D01*
X84120333Y-95624380D01*
X83977476Y-95672000D01*
X83929857Y-95719619D01*
X82977476Y-96624380D02*
X83548904Y-96624380D01*
X83263190Y-96624380D02*
X83263190Y-95624380D01*
X83358428Y-95767238D01*
X83453666Y-95862476D01*
X83548904Y-95910095D01*
X82406047Y-96052952D02*
X82501285Y-96005333D01*
X82548904Y-95957714D01*
X82596523Y-95862476D01*
X82596523Y-95814857D01*
X82548904Y-95719619D01*
X82501285Y-95672000D01*
X82406047Y-95624380D01*
X82215571Y-95624380D01*
X82120333Y-95672000D01*
X82072714Y-95719619D01*
X82025095Y-95814857D01*
X82025095Y-95862476D01*
X82072714Y-95957714D01*
X82120333Y-96005333D01*
X82215571Y-96052952D01*
X82406047Y-96052952D01*
X82501285Y-96100571D01*
X82548904Y-96148190D01*
X82596523Y-96243428D01*
X82596523Y-96433904D01*
X82548904Y-96529142D01*
X82501285Y-96576761D01*
X82406047Y-96624380D01*
X82215571Y-96624380D01*
X82120333Y-96576761D01*
X82072714Y-96529142D01*
X82025095Y-96433904D01*
X82025095Y-96243428D01*
X82072714Y-96148190D01*
X82120333Y-96100571D01*
X82215571Y-96052952D01*
%TO.C,C1*%
X64428666Y-58429142D02*
X64476285Y-58476761D01*
X64619142Y-58524380D01*
X64714380Y-58524380D01*
X64857238Y-58476761D01*
X64952476Y-58381523D01*
X65000095Y-58286285D01*
X65047714Y-58095809D01*
X65047714Y-57952952D01*
X65000095Y-57762476D01*
X64952476Y-57667238D01*
X64857238Y-57572000D01*
X64714380Y-57524380D01*
X64619142Y-57524380D01*
X64476285Y-57572000D01*
X64428666Y-57619619D01*
X63476285Y-58524380D02*
X64047714Y-58524380D01*
X63762000Y-58524380D02*
X63762000Y-57524380D01*
X63857238Y-57667238D01*
X63952476Y-57762476D01*
X64047714Y-57810095D01*
%TO.C,R1*%
X222035666Y-100274380D02*
X222369000Y-99798190D01*
X222607095Y-100274380D02*
X222607095Y-99274380D01*
X222226142Y-99274380D01*
X222130904Y-99322000D01*
X222083285Y-99369619D01*
X222035666Y-99464857D01*
X222035666Y-99607714D01*
X222083285Y-99702952D01*
X222130904Y-99750571D01*
X222226142Y-99798190D01*
X222607095Y-99798190D01*
X221083285Y-100274380D02*
X221654714Y-100274380D01*
X221369000Y-100274380D02*
X221369000Y-99274380D01*
X221464238Y-99417238D01*
X221559476Y-99512476D01*
X221654714Y-99560095D01*
D11*
%TO.C,IC2*%
X220284523Y-90200238D02*
X219014523Y-90200238D01*
X220163571Y-91530714D02*
X220224047Y-91470238D01*
X220284523Y-91288809D01*
X220284523Y-91167857D01*
X220224047Y-90986428D01*
X220103095Y-90865476D01*
X219982142Y-90805000D01*
X219740238Y-90744523D01*
X219558809Y-90744523D01*
X219316904Y-90805000D01*
X219195952Y-90865476D01*
X219075000Y-90986428D01*
X219014523Y-91167857D01*
X219014523Y-91288809D01*
X219075000Y-91470238D01*
X219135476Y-91530714D01*
X219135476Y-92014523D02*
X219075000Y-92075000D01*
X219014523Y-92195952D01*
X219014523Y-92498333D01*
X219075000Y-92619285D01*
X219135476Y-92679761D01*
X219256428Y-92740238D01*
X219377380Y-92740238D01*
X219558809Y-92679761D01*
X220284523Y-91954047D01*
X220284523Y-92740238D01*
D10*
%TO.C,C19*%
X102979857Y-96529142D02*
X103027476Y-96576761D01*
X103170333Y-96624380D01*
X103265571Y-96624380D01*
X103408428Y-96576761D01*
X103503666Y-96481523D01*
X103551285Y-96386285D01*
X103598904Y-96195809D01*
X103598904Y-96052952D01*
X103551285Y-95862476D01*
X103503666Y-95767238D01*
X103408428Y-95672000D01*
X103265571Y-95624380D01*
X103170333Y-95624380D01*
X103027476Y-95672000D01*
X102979857Y-95719619D01*
X102027476Y-96624380D02*
X102598904Y-96624380D01*
X102313190Y-96624380D02*
X102313190Y-95624380D01*
X102408428Y-95767238D01*
X102503666Y-95862476D01*
X102598904Y-95910095D01*
X101551285Y-96624380D02*
X101360809Y-96624380D01*
X101265571Y-96576761D01*
X101217952Y-96529142D01*
X101122714Y-96386285D01*
X101075095Y-96195809D01*
X101075095Y-95814857D01*
X101122714Y-95719619D01*
X101170333Y-95672000D01*
X101265571Y-95624380D01*
X101456047Y-95624380D01*
X101551285Y-95672000D01*
X101598904Y-95719619D01*
X101646523Y-95814857D01*
X101646523Y-96052952D01*
X101598904Y-96148190D01*
X101551285Y-96195809D01*
X101456047Y-96243428D01*
X101265571Y-96243428D01*
X101170333Y-96195809D01*
X101122714Y-96148190D01*
X101075095Y-96052952D01*
%TO.C,C22*%
X160129857Y-96529142D02*
X160177476Y-96576761D01*
X160320333Y-96624380D01*
X160415571Y-96624380D01*
X160558428Y-96576761D01*
X160653666Y-96481523D01*
X160701285Y-96386285D01*
X160748904Y-96195809D01*
X160748904Y-96052952D01*
X160701285Y-95862476D01*
X160653666Y-95767238D01*
X160558428Y-95672000D01*
X160415571Y-95624380D01*
X160320333Y-95624380D01*
X160177476Y-95672000D01*
X160129857Y-95719619D01*
X159748904Y-95719619D02*
X159701285Y-95672000D01*
X159606047Y-95624380D01*
X159367952Y-95624380D01*
X159272714Y-95672000D01*
X159225095Y-95719619D01*
X159177476Y-95814857D01*
X159177476Y-95910095D01*
X159225095Y-96052952D01*
X159796523Y-96624380D01*
X159177476Y-96624380D01*
X158796523Y-95719619D02*
X158748904Y-95672000D01*
X158653666Y-95624380D01*
X158415571Y-95624380D01*
X158320333Y-95672000D01*
X158272714Y-95719619D01*
X158225095Y-95814857D01*
X158225095Y-95910095D01*
X158272714Y-96052952D01*
X158844142Y-96624380D01*
X158225095Y-96624380D01*
%TO.C,C11*%
X102979857Y-77479142D02*
X103027476Y-77526761D01*
X103170333Y-77574380D01*
X103265571Y-77574380D01*
X103408428Y-77526761D01*
X103503666Y-77431523D01*
X103551285Y-77336285D01*
X103598904Y-77145809D01*
X103598904Y-77002952D01*
X103551285Y-76812476D01*
X103503666Y-76717238D01*
X103408428Y-76622000D01*
X103265571Y-76574380D01*
X103170333Y-76574380D01*
X103027476Y-76622000D01*
X102979857Y-76669619D01*
X102027476Y-77574380D02*
X102598904Y-77574380D01*
X102313190Y-77574380D02*
X102313190Y-76574380D01*
X102408428Y-76717238D01*
X102503666Y-76812476D01*
X102598904Y-76860095D01*
X101075095Y-77574380D02*
X101646523Y-77574380D01*
X101360809Y-77574380D02*
X101360809Y-76574380D01*
X101456047Y-76717238D01*
X101551285Y-76812476D01*
X101646523Y-76860095D01*
%TO.C,C25*%
X64879857Y-115579142D02*
X64927476Y-115626761D01*
X65070333Y-115674380D01*
X65165571Y-115674380D01*
X65308428Y-115626761D01*
X65403666Y-115531523D01*
X65451285Y-115436285D01*
X65498904Y-115245809D01*
X65498904Y-115102952D01*
X65451285Y-114912476D01*
X65403666Y-114817238D01*
X65308428Y-114722000D01*
X65165571Y-114674380D01*
X65070333Y-114674380D01*
X64927476Y-114722000D01*
X64879857Y-114769619D01*
X64498904Y-114769619D02*
X64451285Y-114722000D01*
X64356047Y-114674380D01*
X64117952Y-114674380D01*
X64022714Y-114722000D01*
X63975095Y-114769619D01*
X63927476Y-114864857D01*
X63927476Y-114960095D01*
X63975095Y-115102952D01*
X64546523Y-115674380D01*
X63927476Y-115674380D01*
X63022714Y-114674380D02*
X63498904Y-114674380D01*
X63546523Y-115150571D01*
X63498904Y-115102952D01*
X63403666Y-115055333D01*
X63165571Y-115055333D01*
X63070333Y-115102952D01*
X63022714Y-115150571D01*
X62975095Y-115245809D01*
X62975095Y-115483904D01*
X63022714Y-115579142D01*
X63070333Y-115626761D01*
X63165571Y-115674380D01*
X63403666Y-115674380D01*
X63498904Y-115626761D01*
X63546523Y-115579142D01*
%TO.C,R10*%
X221559380Y-38473142D02*
X221083190Y-38139809D01*
X221559380Y-37901714D02*
X220559380Y-37901714D01*
X220559380Y-38282666D01*
X220607000Y-38377904D01*
X220654619Y-38425523D01*
X220749857Y-38473142D01*
X220892714Y-38473142D01*
X220987952Y-38425523D01*
X221035571Y-38377904D01*
X221083190Y-38282666D01*
X221083190Y-37901714D01*
X221559380Y-39425523D02*
X221559380Y-38854095D01*
X221559380Y-39139809D02*
X220559380Y-39139809D01*
X220702238Y-39044571D01*
X220797476Y-38949333D01*
X220845095Y-38854095D01*
X220559380Y-40044571D02*
X220559380Y-40139809D01*
X220607000Y-40235047D01*
X220654619Y-40282666D01*
X220749857Y-40330285D01*
X220940333Y-40377904D01*
X221178428Y-40377904D01*
X221368904Y-40330285D01*
X221464142Y-40282666D01*
X221511761Y-40235047D01*
X221559380Y-40139809D01*
X221559380Y-40044571D01*
X221511761Y-39949333D01*
X221464142Y-39901714D01*
X221368904Y-39854095D01*
X221178428Y-39806476D01*
X220940333Y-39806476D01*
X220749857Y-39854095D01*
X220654619Y-39901714D01*
X220607000Y-39949333D01*
X220559380Y-40044571D01*
%TO.C,C28*%
X122029857Y-115579142D02*
X122077476Y-115626761D01*
X122220333Y-115674380D01*
X122315571Y-115674380D01*
X122458428Y-115626761D01*
X122553666Y-115531523D01*
X122601285Y-115436285D01*
X122648904Y-115245809D01*
X122648904Y-115102952D01*
X122601285Y-114912476D01*
X122553666Y-114817238D01*
X122458428Y-114722000D01*
X122315571Y-114674380D01*
X122220333Y-114674380D01*
X122077476Y-114722000D01*
X122029857Y-114769619D01*
X121648904Y-114769619D02*
X121601285Y-114722000D01*
X121506047Y-114674380D01*
X121267952Y-114674380D01*
X121172714Y-114722000D01*
X121125095Y-114769619D01*
X121077476Y-114864857D01*
X121077476Y-114960095D01*
X121125095Y-115102952D01*
X121696523Y-115674380D01*
X121077476Y-115674380D01*
X120506047Y-115102952D02*
X120601285Y-115055333D01*
X120648904Y-115007714D01*
X120696523Y-114912476D01*
X120696523Y-114864857D01*
X120648904Y-114769619D01*
X120601285Y-114722000D01*
X120506047Y-114674380D01*
X120315571Y-114674380D01*
X120220333Y-114722000D01*
X120172714Y-114769619D01*
X120125095Y-114864857D01*
X120125095Y-114912476D01*
X120172714Y-115007714D01*
X120220333Y-115055333D01*
X120315571Y-115102952D01*
X120506047Y-115102952D01*
X120601285Y-115150571D01*
X120648904Y-115198190D01*
X120696523Y-115293428D01*
X120696523Y-115483904D01*
X120648904Y-115579142D01*
X120601285Y-115626761D01*
X120506047Y-115674380D01*
X120315571Y-115674380D01*
X120220333Y-115626761D01*
X120172714Y-115579142D01*
X120125095Y-115483904D01*
X120125095Y-115293428D01*
X120172714Y-115198190D01*
X120220333Y-115150571D01*
X120315571Y-115102952D01*
%TO.C,C5*%
X140577166Y-58429142D02*
X140624785Y-58476761D01*
X140767642Y-58524380D01*
X140862880Y-58524380D01*
X141005738Y-58476761D01*
X141100976Y-58381523D01*
X141148595Y-58286285D01*
X141196214Y-58095809D01*
X141196214Y-57952952D01*
X141148595Y-57762476D01*
X141100976Y-57667238D01*
X141005738Y-57572000D01*
X140862880Y-57524380D01*
X140767642Y-57524380D01*
X140624785Y-57572000D01*
X140577166Y-57619619D01*
X139672404Y-57524380D02*
X140148595Y-57524380D01*
X140196214Y-58000571D01*
X140148595Y-57952952D01*
X140053357Y-57905333D01*
X139815261Y-57905333D01*
X139720023Y-57952952D01*
X139672404Y-58000571D01*
X139624785Y-58095809D01*
X139624785Y-58333904D01*
X139672404Y-58429142D01*
X139720023Y-58476761D01*
X139815261Y-58524380D01*
X140053357Y-58524380D01*
X140148595Y-58476761D01*
X140196214Y-58429142D01*
D11*
%TO.C,IC1*%
X220284523Y-52100238D02*
X219014523Y-52100238D01*
X220163571Y-53430714D02*
X220224047Y-53370238D01*
X220284523Y-53188809D01*
X220284523Y-53067857D01*
X220224047Y-52886428D01*
X220103095Y-52765476D01*
X219982142Y-52705000D01*
X219740238Y-52644523D01*
X219558809Y-52644523D01*
X219316904Y-52705000D01*
X219195952Y-52765476D01*
X219075000Y-52886428D01*
X219014523Y-53067857D01*
X219014523Y-53188809D01*
X219075000Y-53370238D01*
X219135476Y-53430714D01*
X220284523Y-54640238D02*
X220284523Y-53914523D01*
X220284523Y-54277380D02*
X219014523Y-54277380D01*
X219195952Y-54156428D01*
X219316904Y-54035476D01*
X219377380Y-53914523D01*
D10*
%TO.C,C35*%
X225559857Y-68081142D02*
X225607476Y-68128761D01*
X225750333Y-68176380D01*
X225845571Y-68176380D01*
X225988428Y-68128761D01*
X226083666Y-68033523D01*
X226131285Y-67938285D01*
X226178904Y-67747809D01*
X226178904Y-67604952D01*
X226131285Y-67414476D01*
X226083666Y-67319238D01*
X225988428Y-67224000D01*
X225845571Y-67176380D01*
X225750333Y-67176380D01*
X225607476Y-67224000D01*
X225559857Y-67271619D01*
X225226523Y-67176380D02*
X224607476Y-67176380D01*
X224940809Y-67557333D01*
X224797952Y-67557333D01*
X224702714Y-67604952D01*
X224655095Y-67652571D01*
X224607476Y-67747809D01*
X224607476Y-67985904D01*
X224655095Y-68081142D01*
X224702714Y-68128761D01*
X224797952Y-68176380D01*
X225083666Y-68176380D01*
X225178904Y-68128761D01*
X225226523Y-68081142D01*
X223702714Y-67176380D02*
X224178904Y-67176380D01*
X224226523Y-67652571D01*
X224178904Y-67604952D01*
X224083666Y-67557333D01*
X223845571Y-67557333D01*
X223750333Y-67604952D01*
X223702714Y-67652571D01*
X223655095Y-67747809D01*
X223655095Y-67985904D01*
X223702714Y-68081142D01*
X223750333Y-68128761D01*
X223845571Y-68176380D01*
X224083666Y-68176380D01*
X224178904Y-68128761D01*
X224226523Y-68081142D01*
%TO.C,R6*%
X230417666Y-82654380D02*
X230751000Y-82178190D01*
X230989095Y-82654380D02*
X230989095Y-81654380D01*
X230608142Y-81654380D01*
X230512904Y-81702000D01*
X230465285Y-81749619D01*
X230417666Y-81844857D01*
X230417666Y-81987714D01*
X230465285Y-82082952D01*
X230512904Y-82130571D01*
X230608142Y-82178190D01*
X230989095Y-82178190D01*
X229560523Y-81654380D02*
X229751000Y-81654380D01*
X229846238Y-81702000D01*
X229893857Y-81749619D01*
X229989095Y-81892476D01*
X230036714Y-82082952D01*
X230036714Y-82463904D01*
X229989095Y-82559142D01*
X229941476Y-82606761D01*
X229846238Y-82654380D01*
X229655761Y-82654380D01*
X229560523Y-82606761D01*
X229512904Y-82559142D01*
X229465285Y-82463904D01*
X229465285Y-82225809D01*
X229512904Y-82130571D01*
X229560523Y-82082952D01*
X229655761Y-82035333D01*
X229846238Y-82035333D01*
X229941476Y-82082952D01*
X229989095Y-82130571D01*
X230036714Y-82225809D01*
%TO.C,R2*%
X222162666Y-62174380D02*
X222496000Y-61698190D01*
X222734095Y-62174380D02*
X222734095Y-61174380D01*
X222353142Y-61174380D01*
X222257904Y-61222000D01*
X222210285Y-61269619D01*
X222162666Y-61364857D01*
X222162666Y-61507714D01*
X222210285Y-61602952D01*
X222257904Y-61650571D01*
X222353142Y-61698190D01*
X222734095Y-61698190D01*
X221781714Y-61269619D02*
X221734095Y-61222000D01*
X221638857Y-61174380D01*
X221400761Y-61174380D01*
X221305523Y-61222000D01*
X221257904Y-61269619D01*
X221210285Y-61364857D01*
X221210285Y-61460095D01*
X221257904Y-61602952D01*
X221829333Y-62174380D01*
X221210285Y-62174380D01*
%TO.C,C14*%
X160129857Y-77479142D02*
X160177476Y-77526761D01*
X160320333Y-77574380D01*
X160415571Y-77574380D01*
X160558428Y-77526761D01*
X160653666Y-77431523D01*
X160701285Y-77336285D01*
X160748904Y-77145809D01*
X160748904Y-77002952D01*
X160701285Y-76812476D01*
X160653666Y-76717238D01*
X160558428Y-76622000D01*
X160415571Y-76574380D01*
X160320333Y-76574380D01*
X160177476Y-76622000D01*
X160129857Y-76669619D01*
X159177476Y-77574380D02*
X159748904Y-77574380D01*
X159463190Y-77574380D02*
X159463190Y-76574380D01*
X159558428Y-76717238D01*
X159653666Y-76812476D01*
X159748904Y-76860095D01*
X158320333Y-76907714D02*
X158320333Y-77574380D01*
X158558428Y-76526761D02*
X158796523Y-77241047D01*
X158177476Y-77241047D01*
%TO.C,C34*%
X225305857Y-97098142D02*
X225353476Y-97145761D01*
X225496333Y-97193380D01*
X225591571Y-97193380D01*
X225734428Y-97145761D01*
X225829666Y-97050523D01*
X225877285Y-96955285D01*
X225924904Y-96764809D01*
X225924904Y-96621952D01*
X225877285Y-96431476D01*
X225829666Y-96336238D01*
X225734428Y-96241000D01*
X225591571Y-96193380D01*
X225496333Y-96193380D01*
X225353476Y-96241000D01*
X225305857Y-96288619D01*
X224972523Y-96193380D02*
X224353476Y-96193380D01*
X224686809Y-96574333D01*
X224543952Y-96574333D01*
X224448714Y-96621952D01*
X224401095Y-96669571D01*
X224353476Y-96764809D01*
X224353476Y-97002904D01*
X224401095Y-97098142D01*
X224448714Y-97145761D01*
X224543952Y-97193380D01*
X224829666Y-97193380D01*
X224924904Y-97145761D01*
X224972523Y-97098142D01*
X223496333Y-96526714D02*
X223496333Y-97193380D01*
X223734428Y-96145761D02*
X223972523Y-96860047D01*
X223353476Y-96860047D01*
%TO.C,C32*%
X198281357Y-115579142D02*
X198328976Y-115626761D01*
X198471833Y-115674380D01*
X198567071Y-115674380D01*
X198709928Y-115626761D01*
X198805166Y-115531523D01*
X198852785Y-115436285D01*
X198900404Y-115245809D01*
X198900404Y-115102952D01*
X198852785Y-114912476D01*
X198805166Y-114817238D01*
X198709928Y-114722000D01*
X198567071Y-114674380D01*
X198471833Y-114674380D01*
X198328976Y-114722000D01*
X198281357Y-114769619D01*
X197948023Y-114674380D02*
X197328976Y-114674380D01*
X197662309Y-115055333D01*
X197519452Y-115055333D01*
X197424214Y-115102952D01*
X197376595Y-115150571D01*
X197328976Y-115245809D01*
X197328976Y-115483904D01*
X197376595Y-115579142D01*
X197424214Y-115626761D01*
X197519452Y-115674380D01*
X197805166Y-115674380D01*
X197900404Y-115626761D01*
X197948023Y-115579142D01*
X196948023Y-114769619D02*
X196900404Y-114722000D01*
X196805166Y-114674380D01*
X196567071Y-114674380D01*
X196471833Y-114722000D01*
X196424214Y-114769619D01*
X196376595Y-114864857D01*
X196376595Y-114960095D01*
X196424214Y-115102952D01*
X196995642Y-115674380D01*
X196376595Y-115674380D01*
%TO.C,C13*%
X141079857Y-77479142D02*
X141127476Y-77526761D01*
X141270333Y-77574380D01*
X141365571Y-77574380D01*
X141508428Y-77526761D01*
X141603666Y-77431523D01*
X141651285Y-77336285D01*
X141698904Y-77145809D01*
X141698904Y-77002952D01*
X141651285Y-76812476D01*
X141603666Y-76717238D01*
X141508428Y-76622000D01*
X141365571Y-76574380D01*
X141270333Y-76574380D01*
X141127476Y-76622000D01*
X141079857Y-76669619D01*
X140127476Y-77574380D02*
X140698904Y-77574380D01*
X140413190Y-77574380D02*
X140413190Y-76574380D01*
X140508428Y-76717238D01*
X140603666Y-76812476D01*
X140698904Y-76860095D01*
X139794142Y-76574380D02*
X139175095Y-76574380D01*
X139508428Y-76955333D01*
X139365571Y-76955333D01*
X139270333Y-77002952D01*
X139222714Y-77050571D01*
X139175095Y-77145809D01*
X139175095Y-77383904D01*
X139222714Y-77479142D01*
X139270333Y-77526761D01*
X139365571Y-77574380D01*
X139651285Y-77574380D01*
X139746523Y-77526761D01*
X139794142Y-77479142D01*
%TO.C,C17*%
X64879857Y-96529142D02*
X64927476Y-96576761D01*
X65070333Y-96624380D01*
X65165571Y-96624380D01*
X65308428Y-96576761D01*
X65403666Y-96481523D01*
X65451285Y-96386285D01*
X65498904Y-96195809D01*
X65498904Y-96052952D01*
X65451285Y-95862476D01*
X65403666Y-95767238D01*
X65308428Y-95672000D01*
X65165571Y-95624380D01*
X65070333Y-95624380D01*
X64927476Y-95672000D01*
X64879857Y-95719619D01*
X63927476Y-96624380D02*
X64498904Y-96624380D01*
X64213190Y-96624380D02*
X64213190Y-95624380D01*
X64308428Y-95767238D01*
X64403666Y-95862476D01*
X64498904Y-95910095D01*
X63594142Y-95624380D02*
X62927476Y-95624380D01*
X63356047Y-96624380D01*
%TO.C,C16*%
X198229857Y-77479142D02*
X198277476Y-77526761D01*
X198420333Y-77574380D01*
X198515571Y-77574380D01*
X198658428Y-77526761D01*
X198753666Y-77431523D01*
X198801285Y-77336285D01*
X198848904Y-77145809D01*
X198848904Y-77002952D01*
X198801285Y-76812476D01*
X198753666Y-76717238D01*
X198658428Y-76622000D01*
X198515571Y-76574380D01*
X198420333Y-76574380D01*
X198277476Y-76622000D01*
X198229857Y-76669619D01*
X197277476Y-77574380D02*
X197848904Y-77574380D01*
X197563190Y-77574380D02*
X197563190Y-76574380D01*
X197658428Y-76717238D01*
X197753666Y-76812476D01*
X197848904Y-76860095D01*
X196420333Y-76574380D02*
X196610809Y-76574380D01*
X196706047Y-76622000D01*
X196753666Y-76669619D01*
X196848904Y-76812476D01*
X196896523Y-77002952D01*
X196896523Y-77383904D01*
X196848904Y-77479142D01*
X196801285Y-77526761D01*
X196706047Y-77574380D01*
X196515571Y-77574380D01*
X196420333Y-77526761D01*
X196372714Y-77479142D01*
X196325095Y-77383904D01*
X196325095Y-77145809D01*
X196372714Y-77050571D01*
X196420333Y-77002952D01*
X196515571Y-76955333D01*
X196706047Y-76955333D01*
X196801285Y-77002952D01*
X196848904Y-77050571D01*
X196896523Y-77145809D01*
%TO.C,R9*%
X223083380Y-39330333D02*
X222607190Y-38997000D01*
X223083380Y-38758904D02*
X222083380Y-38758904D01*
X222083380Y-39139857D01*
X222131000Y-39235095D01*
X222178619Y-39282714D01*
X222273857Y-39330333D01*
X222416714Y-39330333D01*
X222511952Y-39282714D01*
X222559571Y-39235095D01*
X222607190Y-39139857D01*
X222607190Y-38758904D01*
X223083380Y-39806523D02*
X223083380Y-39997000D01*
X223035761Y-40092238D01*
X222988142Y-40139857D01*
X222845285Y-40235095D01*
X222654809Y-40282714D01*
X222273857Y-40282714D01*
X222178619Y-40235095D01*
X222131000Y-40187476D01*
X222083380Y-40092238D01*
X222083380Y-39901761D01*
X222131000Y-39806523D01*
X222178619Y-39758904D01*
X222273857Y-39711285D01*
X222511952Y-39711285D01*
X222607190Y-39758904D01*
X222654809Y-39806523D01*
X222702428Y-39901761D01*
X222702428Y-40092238D01*
X222654809Y-40187476D01*
X222607190Y-40235095D01*
X222511952Y-40282714D01*
%TO.C,C21*%
X141079857Y-96529142D02*
X141127476Y-96576761D01*
X141270333Y-96624380D01*
X141365571Y-96624380D01*
X141508428Y-96576761D01*
X141603666Y-96481523D01*
X141651285Y-96386285D01*
X141698904Y-96195809D01*
X141698904Y-96052952D01*
X141651285Y-95862476D01*
X141603666Y-95767238D01*
X141508428Y-95672000D01*
X141365571Y-95624380D01*
X141270333Y-95624380D01*
X141127476Y-95672000D01*
X141079857Y-95719619D01*
X140698904Y-95719619D02*
X140651285Y-95672000D01*
X140556047Y-95624380D01*
X140317952Y-95624380D01*
X140222714Y-95672000D01*
X140175095Y-95719619D01*
X140127476Y-95814857D01*
X140127476Y-95910095D01*
X140175095Y-96052952D01*
X140746523Y-96624380D01*
X140127476Y-96624380D01*
X139175095Y-96624380D02*
X139746523Y-96624380D01*
X139460809Y-96624380D02*
X139460809Y-95624380D01*
X139556047Y-95767238D01*
X139651285Y-95862476D01*
X139746523Y-95910095D01*
%TO.C,C27*%
X102979857Y-115579142D02*
X103027476Y-115626761D01*
X103170333Y-115674380D01*
X103265571Y-115674380D01*
X103408428Y-115626761D01*
X103503666Y-115531523D01*
X103551285Y-115436285D01*
X103598904Y-115245809D01*
X103598904Y-115102952D01*
X103551285Y-114912476D01*
X103503666Y-114817238D01*
X103408428Y-114722000D01*
X103265571Y-114674380D01*
X103170333Y-114674380D01*
X103027476Y-114722000D01*
X102979857Y-114769619D01*
X102598904Y-114769619D02*
X102551285Y-114722000D01*
X102456047Y-114674380D01*
X102217952Y-114674380D01*
X102122714Y-114722000D01*
X102075095Y-114769619D01*
X102027476Y-114864857D01*
X102027476Y-114960095D01*
X102075095Y-115102952D01*
X102646523Y-115674380D01*
X102027476Y-115674380D01*
X101694142Y-114674380D02*
X101027476Y-114674380D01*
X101456047Y-115674380D01*
%TO.C,C33*%
X225406357Y-58998142D02*
X225453976Y-59045761D01*
X225596833Y-59093380D01*
X225692071Y-59093380D01*
X225834928Y-59045761D01*
X225930166Y-58950523D01*
X225977785Y-58855285D01*
X226025404Y-58664809D01*
X226025404Y-58521952D01*
X225977785Y-58331476D01*
X225930166Y-58236238D01*
X225834928Y-58141000D01*
X225692071Y-58093380D01*
X225596833Y-58093380D01*
X225453976Y-58141000D01*
X225406357Y-58188619D01*
X225073023Y-58093380D02*
X224453976Y-58093380D01*
X224787309Y-58474333D01*
X224644452Y-58474333D01*
X224549214Y-58521952D01*
X224501595Y-58569571D01*
X224453976Y-58664809D01*
X224453976Y-58902904D01*
X224501595Y-58998142D01*
X224549214Y-59045761D01*
X224644452Y-59093380D01*
X224930166Y-59093380D01*
X225025404Y-59045761D01*
X225073023Y-58998142D01*
X224120642Y-58093380D02*
X223501595Y-58093380D01*
X223834928Y-58474333D01*
X223692071Y-58474333D01*
X223596833Y-58521952D01*
X223549214Y-58569571D01*
X223501595Y-58664809D01*
X223501595Y-58902904D01*
X223549214Y-58998142D01*
X223596833Y-59045761D01*
X223692071Y-59093380D01*
X223977785Y-59093380D01*
X224073023Y-59045761D01*
X224120642Y-58998142D01*
%TO.C,C29*%
X141131357Y-115579142D02*
X141178976Y-115626761D01*
X141321833Y-115674380D01*
X141417071Y-115674380D01*
X141559928Y-115626761D01*
X141655166Y-115531523D01*
X141702785Y-115436285D01*
X141750404Y-115245809D01*
X141750404Y-115102952D01*
X141702785Y-114912476D01*
X141655166Y-114817238D01*
X141559928Y-114722000D01*
X141417071Y-114674380D01*
X141321833Y-114674380D01*
X141178976Y-114722000D01*
X141131357Y-114769619D01*
X140750404Y-114769619D02*
X140702785Y-114722000D01*
X140607547Y-114674380D01*
X140369452Y-114674380D01*
X140274214Y-114722000D01*
X140226595Y-114769619D01*
X140178976Y-114864857D01*
X140178976Y-114960095D01*
X140226595Y-115102952D01*
X140798023Y-115674380D01*
X140178976Y-115674380D01*
X139702785Y-115674380D02*
X139512309Y-115674380D01*
X139417071Y-115626761D01*
X139369452Y-115579142D01*
X139274214Y-115436285D01*
X139226595Y-115245809D01*
X139226595Y-114864857D01*
X139274214Y-114769619D01*
X139321833Y-114722000D01*
X139417071Y-114674380D01*
X139607547Y-114674380D01*
X139702785Y-114722000D01*
X139750404Y-114769619D01*
X139798023Y-114864857D01*
X139798023Y-115102952D01*
X139750404Y-115198190D01*
X139702785Y-115245809D01*
X139607547Y-115293428D01*
X139417071Y-115293428D01*
X139321833Y-115245809D01*
X139274214Y-115198190D01*
X139226595Y-115102952D01*
D11*
%TO.C,IC3*%
X230190523Y-67975238D02*
X228920523Y-67975238D01*
X230069571Y-69305714D02*
X230130047Y-69245238D01*
X230190523Y-69063809D01*
X230190523Y-68942857D01*
X230130047Y-68761428D01*
X230009095Y-68640476D01*
X229888142Y-68580000D01*
X229646238Y-68519523D01*
X229464809Y-68519523D01*
X229222904Y-68580000D01*
X229101952Y-68640476D01*
X228981000Y-68761428D01*
X228920523Y-68942857D01*
X228920523Y-69063809D01*
X228981000Y-69245238D01*
X229041476Y-69305714D01*
X228920523Y-69729047D02*
X228920523Y-70515238D01*
X229404333Y-70091904D01*
X229404333Y-70273333D01*
X229464809Y-70394285D01*
X229525285Y-70454761D01*
X229646238Y-70515238D01*
X229948619Y-70515238D01*
X230069571Y-70454761D01*
X230130047Y-70394285D01*
X230190523Y-70273333D01*
X230190523Y-69910476D01*
X230130047Y-69789523D01*
X230069571Y-69729047D01*
D10*
%TO.C,C31*%
X179179857Y-115579142D02*
X179227476Y-115626761D01*
X179370333Y-115674380D01*
X179465571Y-115674380D01*
X179608428Y-115626761D01*
X179703666Y-115531523D01*
X179751285Y-115436285D01*
X179798904Y-115245809D01*
X179798904Y-115102952D01*
X179751285Y-114912476D01*
X179703666Y-114817238D01*
X179608428Y-114722000D01*
X179465571Y-114674380D01*
X179370333Y-114674380D01*
X179227476Y-114722000D01*
X179179857Y-114769619D01*
X178846523Y-114674380D02*
X178227476Y-114674380D01*
X178560809Y-115055333D01*
X178417952Y-115055333D01*
X178322714Y-115102952D01*
X178275095Y-115150571D01*
X178227476Y-115245809D01*
X178227476Y-115483904D01*
X178275095Y-115579142D01*
X178322714Y-115626761D01*
X178417952Y-115674380D01*
X178703666Y-115674380D01*
X178798904Y-115626761D01*
X178846523Y-115579142D01*
X177275095Y-115674380D02*
X177846523Y-115674380D01*
X177560809Y-115674380D02*
X177560809Y-114674380D01*
X177656047Y-114817238D01*
X177751285Y-114912476D01*
X177846523Y-114960095D01*
%TO.C,C3*%
X102477166Y-58429142D02*
X102524785Y-58476761D01*
X102667642Y-58524380D01*
X102762880Y-58524380D01*
X102905738Y-58476761D01*
X103000976Y-58381523D01*
X103048595Y-58286285D01*
X103096214Y-58095809D01*
X103096214Y-57952952D01*
X103048595Y-57762476D01*
X103000976Y-57667238D01*
X102905738Y-57572000D01*
X102762880Y-57524380D01*
X102667642Y-57524380D01*
X102524785Y-57572000D01*
X102477166Y-57619619D01*
X102143833Y-57524380D02*
X101524785Y-57524380D01*
X101858119Y-57905333D01*
X101715261Y-57905333D01*
X101620023Y-57952952D01*
X101572404Y-58000571D01*
X101524785Y-58095809D01*
X101524785Y-58333904D01*
X101572404Y-58429142D01*
X101620023Y-58476761D01*
X101715261Y-58524380D01*
X102000976Y-58524380D01*
X102096214Y-58476761D01*
X102143833Y-58429142D01*
%TO.C,R8*%
X220511666Y-47061380D02*
X220845000Y-46585190D01*
X221083095Y-47061380D02*
X221083095Y-46061380D01*
X220702142Y-46061380D01*
X220606904Y-46109000D01*
X220559285Y-46156619D01*
X220511666Y-46251857D01*
X220511666Y-46394714D01*
X220559285Y-46489952D01*
X220606904Y-46537571D01*
X220702142Y-46585190D01*
X221083095Y-46585190D01*
X219940238Y-46489952D02*
X220035476Y-46442333D01*
X220083095Y-46394714D01*
X220130714Y-46299476D01*
X220130714Y-46251857D01*
X220083095Y-46156619D01*
X220035476Y-46109000D01*
X219940238Y-46061380D01*
X219749761Y-46061380D01*
X219654523Y-46109000D01*
X219606904Y-46156619D01*
X219559285Y-46251857D01*
X219559285Y-46299476D01*
X219606904Y-46394714D01*
X219654523Y-46442333D01*
X219749761Y-46489952D01*
X219940238Y-46489952D01*
X220035476Y-46537571D01*
X220083095Y-46585190D01*
X220130714Y-46680428D01*
X220130714Y-46870904D01*
X220083095Y-46966142D01*
X220035476Y-47013761D01*
X219940238Y-47061380D01*
X219749761Y-47061380D01*
X219654523Y-47013761D01*
X219606904Y-46966142D01*
X219559285Y-46870904D01*
X219559285Y-46680428D01*
X219606904Y-46585190D01*
X219654523Y-46537571D01*
X219749761Y-46489952D01*
%TO.C,C30*%
X160129857Y-115579142D02*
X160177476Y-115626761D01*
X160320333Y-115674380D01*
X160415571Y-115674380D01*
X160558428Y-115626761D01*
X160653666Y-115531523D01*
X160701285Y-115436285D01*
X160748904Y-115245809D01*
X160748904Y-115102952D01*
X160701285Y-114912476D01*
X160653666Y-114817238D01*
X160558428Y-114722000D01*
X160415571Y-114674380D01*
X160320333Y-114674380D01*
X160177476Y-114722000D01*
X160129857Y-114769619D01*
X159796523Y-114674380D02*
X159177476Y-114674380D01*
X159510809Y-115055333D01*
X159367952Y-115055333D01*
X159272714Y-115102952D01*
X159225095Y-115150571D01*
X159177476Y-115245809D01*
X159177476Y-115483904D01*
X159225095Y-115579142D01*
X159272714Y-115626761D01*
X159367952Y-115674380D01*
X159653666Y-115674380D01*
X159748904Y-115626761D01*
X159796523Y-115579142D01*
X158558428Y-114674380D02*
X158463190Y-114674380D01*
X158367952Y-114722000D01*
X158320333Y-114769619D01*
X158272714Y-114864857D01*
X158225095Y-115055333D01*
X158225095Y-115293428D01*
X158272714Y-115483904D01*
X158320333Y-115579142D01*
X158367952Y-115626761D01*
X158463190Y-115674380D01*
X158558428Y-115674380D01*
X158653666Y-115626761D01*
X158701285Y-115579142D01*
X158748904Y-115483904D01*
X158796523Y-115293428D01*
X158796523Y-115055333D01*
X158748904Y-114864857D01*
X158701285Y-114769619D01*
X158653666Y-114722000D01*
X158558428Y-114674380D01*
%TO.C,C26*%
X83929857Y-115579142D02*
X83977476Y-115626761D01*
X84120333Y-115674380D01*
X84215571Y-115674380D01*
X84358428Y-115626761D01*
X84453666Y-115531523D01*
X84501285Y-115436285D01*
X84548904Y-115245809D01*
X84548904Y-115102952D01*
X84501285Y-114912476D01*
X84453666Y-114817238D01*
X84358428Y-114722000D01*
X84215571Y-114674380D01*
X84120333Y-114674380D01*
X83977476Y-114722000D01*
X83929857Y-114769619D01*
X83548904Y-114769619D02*
X83501285Y-114722000D01*
X83406047Y-114674380D01*
X83167952Y-114674380D01*
X83072714Y-114722000D01*
X83025095Y-114769619D01*
X82977476Y-114864857D01*
X82977476Y-114960095D01*
X83025095Y-115102952D01*
X83596523Y-115674380D01*
X82977476Y-115674380D01*
X82120333Y-114674380D02*
X82310809Y-114674380D01*
X82406047Y-114722000D01*
X82453666Y-114769619D01*
X82548904Y-114912476D01*
X82596523Y-115102952D01*
X82596523Y-115483904D01*
X82548904Y-115579142D01*
X82501285Y-115626761D01*
X82406047Y-115674380D01*
X82215571Y-115674380D01*
X82120333Y-115626761D01*
X82072714Y-115579142D01*
X82025095Y-115483904D01*
X82025095Y-115245809D01*
X82072714Y-115150571D01*
X82120333Y-115102952D01*
X82215571Y-115055333D01*
X82406047Y-115055333D01*
X82501285Y-115102952D01*
X82548904Y-115150571D01*
X82596523Y-115245809D01*
%TO.C,C6*%
X159653666Y-58429142D02*
X159701285Y-58476761D01*
X159844142Y-58524380D01*
X159939380Y-58524380D01*
X160082238Y-58476761D01*
X160177476Y-58381523D01*
X160225095Y-58286285D01*
X160272714Y-58095809D01*
X160272714Y-57952952D01*
X160225095Y-57762476D01*
X160177476Y-57667238D01*
X160082238Y-57572000D01*
X159939380Y-57524380D01*
X159844142Y-57524380D01*
X159701285Y-57572000D01*
X159653666Y-57619619D01*
X158796523Y-57524380D02*
X158987000Y-57524380D01*
X159082238Y-57572000D01*
X159129857Y-57619619D01*
X159225095Y-57762476D01*
X159272714Y-57952952D01*
X159272714Y-58333904D01*
X159225095Y-58429142D01*
X159177476Y-58476761D01*
X159082238Y-58524380D01*
X158891761Y-58524380D01*
X158796523Y-58476761D01*
X158748904Y-58429142D01*
X158701285Y-58333904D01*
X158701285Y-58095809D01*
X158748904Y-58000571D01*
X158796523Y-57952952D01*
X158891761Y-57905333D01*
X159082238Y-57905333D01*
X159177476Y-57952952D01*
X159225095Y-58000571D01*
X159272714Y-58095809D01*
%TO.C,C12*%
X122029857Y-77479142D02*
X122077476Y-77526761D01*
X122220333Y-77574380D01*
X122315571Y-77574380D01*
X122458428Y-77526761D01*
X122553666Y-77431523D01*
X122601285Y-77336285D01*
X122648904Y-77145809D01*
X122648904Y-77002952D01*
X122601285Y-76812476D01*
X122553666Y-76717238D01*
X122458428Y-76622000D01*
X122315571Y-76574380D01*
X122220333Y-76574380D01*
X122077476Y-76622000D01*
X122029857Y-76669619D01*
X121077476Y-77574380D02*
X121648904Y-77574380D01*
X121363190Y-77574380D02*
X121363190Y-76574380D01*
X121458428Y-76717238D01*
X121553666Y-76812476D01*
X121648904Y-76860095D01*
X120696523Y-76669619D02*
X120648904Y-76622000D01*
X120553666Y-76574380D01*
X120315571Y-76574380D01*
X120220333Y-76622000D01*
X120172714Y-76669619D01*
X120125095Y-76764857D01*
X120125095Y-76860095D01*
X120172714Y-77002952D01*
X120744142Y-77574380D01*
X120125095Y-77574380D01*
%TO.C,C10*%
X83929857Y-77479142D02*
X83977476Y-77526761D01*
X84120333Y-77574380D01*
X84215571Y-77574380D01*
X84358428Y-77526761D01*
X84453666Y-77431523D01*
X84501285Y-77336285D01*
X84548904Y-77145809D01*
X84548904Y-77002952D01*
X84501285Y-76812476D01*
X84453666Y-76717238D01*
X84358428Y-76622000D01*
X84215571Y-76574380D01*
X84120333Y-76574380D01*
X83977476Y-76622000D01*
X83929857Y-76669619D01*
X82977476Y-77574380D02*
X83548904Y-77574380D01*
X83263190Y-77574380D02*
X83263190Y-76574380D01*
X83358428Y-76717238D01*
X83453666Y-76812476D01*
X83548904Y-76860095D01*
X82358428Y-76574380D02*
X82263190Y-76574380D01*
X82167952Y-76622000D01*
X82120333Y-76669619D01*
X82072714Y-76764857D01*
X82025095Y-76955333D01*
X82025095Y-77193428D01*
X82072714Y-77383904D01*
X82120333Y-77479142D01*
X82167952Y-77526761D01*
X82263190Y-77574380D01*
X82358428Y-77574380D01*
X82453666Y-77526761D01*
X82501285Y-77479142D01*
X82548904Y-77383904D01*
X82596523Y-77193428D01*
X82596523Y-76955333D01*
X82548904Y-76764857D01*
X82501285Y-76669619D01*
X82453666Y-76622000D01*
X82358428Y-76574380D01*
%TO.C,R7*%
X220511666Y-48585380D02*
X220845000Y-48109190D01*
X221083095Y-48585380D02*
X221083095Y-47585380D01*
X220702142Y-47585380D01*
X220606904Y-47633000D01*
X220559285Y-47680619D01*
X220511666Y-47775857D01*
X220511666Y-47918714D01*
X220559285Y-48013952D01*
X220606904Y-48061571D01*
X220702142Y-48109190D01*
X221083095Y-48109190D01*
X220178333Y-47585380D02*
X219511666Y-47585380D01*
X219940238Y-48585380D01*
%TO.C,C8*%
X197727166Y-58429142D02*
X197774785Y-58476761D01*
X197917642Y-58524380D01*
X198012880Y-58524380D01*
X198155738Y-58476761D01*
X198250976Y-58381523D01*
X198298595Y-58286285D01*
X198346214Y-58095809D01*
X198346214Y-57952952D01*
X198298595Y-57762476D01*
X198250976Y-57667238D01*
X198155738Y-57572000D01*
X198012880Y-57524380D01*
X197917642Y-57524380D01*
X197774785Y-57572000D01*
X197727166Y-57619619D01*
X197155738Y-57952952D02*
X197250976Y-57905333D01*
X197298595Y-57857714D01*
X197346214Y-57762476D01*
X197346214Y-57714857D01*
X197298595Y-57619619D01*
X197250976Y-57572000D01*
X197155738Y-57524380D01*
X196965261Y-57524380D01*
X196870023Y-57572000D01*
X196822404Y-57619619D01*
X196774785Y-57714857D01*
X196774785Y-57762476D01*
X196822404Y-57857714D01*
X196870023Y-57905333D01*
X196965261Y-57952952D01*
X197155738Y-57952952D01*
X197250976Y-58000571D01*
X197298595Y-58048190D01*
X197346214Y-58143428D01*
X197346214Y-58333904D01*
X197298595Y-58429142D01*
X197250976Y-58476761D01*
X197155738Y-58524380D01*
X196965261Y-58524380D01*
X196870023Y-58476761D01*
X196822404Y-58429142D01*
X196774785Y-58333904D01*
X196774785Y-58143428D01*
X196822404Y-58048190D01*
X196870023Y-58000571D01*
X196965261Y-57952952D01*
%TO.C,C23*%
X179179857Y-96529142D02*
X179227476Y-96576761D01*
X179370333Y-96624380D01*
X179465571Y-96624380D01*
X179608428Y-96576761D01*
X179703666Y-96481523D01*
X179751285Y-96386285D01*
X179798904Y-96195809D01*
X179798904Y-96052952D01*
X179751285Y-95862476D01*
X179703666Y-95767238D01*
X179608428Y-95672000D01*
X179465571Y-95624380D01*
X179370333Y-95624380D01*
X179227476Y-95672000D01*
X179179857Y-95719619D01*
X178798904Y-95719619D02*
X178751285Y-95672000D01*
X178656047Y-95624380D01*
X178417952Y-95624380D01*
X178322714Y-95672000D01*
X178275095Y-95719619D01*
X178227476Y-95814857D01*
X178227476Y-95910095D01*
X178275095Y-96052952D01*
X178846523Y-96624380D01*
X178227476Y-96624380D01*
X177894142Y-95624380D02*
X177275095Y-95624380D01*
X177608428Y-96005333D01*
X177465571Y-96005333D01*
X177370333Y-96052952D01*
X177322714Y-96100571D01*
X177275095Y-96195809D01*
X177275095Y-96433904D01*
X177322714Y-96529142D01*
X177370333Y-96576761D01*
X177465571Y-96624380D01*
X177751285Y-96624380D01*
X177846523Y-96576761D01*
X177894142Y-96529142D01*
%TO.C,C4*%
X121578666Y-58429142D02*
X121626285Y-58476761D01*
X121769142Y-58524380D01*
X121864380Y-58524380D01*
X122007238Y-58476761D01*
X122102476Y-58381523D01*
X122150095Y-58286285D01*
X122197714Y-58095809D01*
X122197714Y-57952952D01*
X122150095Y-57762476D01*
X122102476Y-57667238D01*
X122007238Y-57572000D01*
X121864380Y-57524380D01*
X121769142Y-57524380D01*
X121626285Y-57572000D01*
X121578666Y-57619619D01*
X120721523Y-57857714D02*
X120721523Y-58524380D01*
X120959619Y-57476761D02*
X121197714Y-58191047D01*
X120578666Y-58191047D01*
%TO.C,C15*%
X179206357Y-77479142D02*
X179253976Y-77526761D01*
X179396833Y-77574380D01*
X179492071Y-77574380D01*
X179634928Y-77526761D01*
X179730166Y-77431523D01*
X179777785Y-77336285D01*
X179825404Y-77145809D01*
X179825404Y-77002952D01*
X179777785Y-76812476D01*
X179730166Y-76717238D01*
X179634928Y-76622000D01*
X179492071Y-76574380D01*
X179396833Y-76574380D01*
X179253976Y-76622000D01*
X179206357Y-76669619D01*
X178253976Y-77574380D02*
X178825404Y-77574380D01*
X178539690Y-77574380D02*
X178539690Y-76574380D01*
X178634928Y-76717238D01*
X178730166Y-76812476D01*
X178825404Y-76860095D01*
X177349214Y-76574380D02*
X177825404Y-76574380D01*
X177873023Y-77050571D01*
X177825404Y-77002952D01*
X177730166Y-76955333D01*
X177492071Y-76955333D01*
X177396833Y-77002952D01*
X177349214Y-77050571D01*
X177301595Y-77145809D01*
X177301595Y-77383904D01*
X177349214Y-77479142D01*
X177396833Y-77526761D01*
X177492071Y-77574380D01*
X177730166Y-77574380D01*
X177825404Y-77526761D01*
X177873023Y-77479142D01*
%TO.C,C36*%
X227464857Y-76463142D02*
X227512476Y-76510761D01*
X227655333Y-76558380D01*
X227750571Y-76558380D01*
X227893428Y-76510761D01*
X227988666Y-76415523D01*
X228036285Y-76320285D01*
X228083904Y-76129809D01*
X228083904Y-75986952D01*
X228036285Y-75796476D01*
X227988666Y-75701238D01*
X227893428Y-75606000D01*
X227750571Y-75558380D01*
X227655333Y-75558380D01*
X227512476Y-75606000D01*
X227464857Y-75653619D01*
X227131523Y-75558380D02*
X226512476Y-75558380D01*
X226845809Y-75939333D01*
X226702952Y-75939333D01*
X226607714Y-75986952D01*
X226560095Y-76034571D01*
X226512476Y-76129809D01*
X226512476Y-76367904D01*
X226560095Y-76463142D01*
X226607714Y-76510761D01*
X226702952Y-76558380D01*
X226988666Y-76558380D01*
X227083904Y-76510761D01*
X227131523Y-76463142D01*
X225655333Y-75558380D02*
X225845809Y-75558380D01*
X225941047Y-75606000D01*
X225988666Y-75653619D01*
X226083904Y-75796476D01*
X226131523Y-75986952D01*
X226131523Y-76367904D01*
X226083904Y-76463142D01*
X226036285Y-76510761D01*
X225941047Y-76558380D01*
X225750571Y-76558380D01*
X225655333Y-76510761D01*
X225607714Y-76463142D01*
X225560095Y-76367904D01*
X225560095Y-76129809D01*
X225607714Y-76034571D01*
X225655333Y-75986952D01*
X225750571Y-75939333D01*
X225941047Y-75939333D01*
X226036285Y-75986952D01*
X226083904Y-76034571D01*
X226131523Y-76129809D01*
%TO.C,R11*%
X234807357Y-74018380D02*
X235140690Y-73542190D01*
X235378785Y-74018380D02*
X235378785Y-73018380D01*
X234997833Y-73018380D01*
X234902595Y-73066000D01*
X234854976Y-73113619D01*
X234807357Y-73208857D01*
X234807357Y-73351714D01*
X234854976Y-73446952D01*
X234902595Y-73494571D01*
X234997833Y-73542190D01*
X235378785Y-73542190D01*
X233854976Y-74018380D02*
X234426404Y-74018380D01*
X234140690Y-74018380D02*
X234140690Y-73018380D01*
X234235928Y-73161238D01*
X234331166Y-73256476D01*
X234426404Y-73304095D01*
X232902595Y-74018380D02*
X233474023Y-74018380D01*
X233188309Y-74018380D02*
X233188309Y-73018380D01*
X233283547Y-73161238D01*
X233378785Y-73256476D01*
X233474023Y-73304095D01*
%TO.C,U3*%
D12*
X112470000Y-58166000D02*
G75*
G03*
X112470000Y-58166000I-100000J0D01*
G01*
%TO.C,U15*%
X188670000Y-77216000D02*
G75*
G03*
X188670000Y-77216000I-100000J0D01*
G01*
%TO.C,U14*%
X169620000Y-77216000D02*
G75*
G03*
X169620000Y-77216000I-100000J0D01*
G01*
%TO.C,U8*%
X207720000Y-58166000D02*
G75*
G03*
X207720000Y-58166000I-100000J0D01*
G01*
%TO.C,U5*%
X150570000Y-58166000D02*
G75*
G03*
X150570000Y-58166000I-100000J0D01*
G01*
%TO.C,U22*%
X169620000Y-96266000D02*
G75*
G03*
X169620000Y-96266000I-100000J0D01*
G01*
%TO.C,U16*%
X207720000Y-77216000D02*
G75*
G03*
X207720000Y-77216000I-100000J0D01*
G01*
%TO.C,U18*%
X93420000Y-96266000D02*
G75*
G03*
X93420000Y-96266000I-100000J0D01*
G01*
%TO.C,U28*%
X131520000Y-115316000D02*
G75*
G03*
X131520000Y-115316000I-100000J0D01*
G01*
%TO.C,U17*%
X74370000Y-96266000D02*
G75*
G03*
X74370000Y-96266000I-100000J0D01*
G01*
%TO.C,U20*%
X131520000Y-96266000D02*
G75*
G03*
X131520000Y-96266000I-100000J0D01*
G01*
%TO.C,U32*%
X207720000Y-115316000D02*
G75*
G03*
X207720000Y-115316000I-100000J0D01*
G01*
%TO.C,U2*%
X93420000Y-58166000D02*
G75*
G03*
X93420000Y-58166000I-100000J0D01*
G01*
%TO.C,U9*%
X74370000Y-77216000D02*
G75*
G03*
X74370000Y-77216000I-100000J0D01*
G01*
%TO.C,U10*%
X93420000Y-77216000D02*
G75*
G03*
X93420000Y-77216000I-100000J0D01*
G01*
%TO.C,U29*%
X150570000Y-115316000D02*
G75*
G03*
X150570000Y-115316000I-100000J0D01*
G01*
%TO.C,U25*%
X74370000Y-115316000D02*
G75*
G03*
X74370000Y-115316000I-100000J0D01*
G01*
%TO.C,U23*%
X188670000Y-96266000D02*
G75*
G03*
X188670000Y-96266000I-100000J0D01*
G01*
%TO.C,U31*%
X188670000Y-115316000D02*
G75*
G03*
X188670000Y-115316000I-100000J0D01*
G01*
%TO.C,U6*%
X169620000Y-58166000D02*
G75*
G03*
X169620000Y-58166000I-100000J0D01*
G01*
%TO.C,U12*%
X131520000Y-77216000D02*
G75*
G03*
X131520000Y-77216000I-100000J0D01*
G01*
%TO.C,U4*%
X131520000Y-58166000D02*
G75*
G03*
X131520000Y-58166000I-100000J0D01*
G01*
%TO.C,U7*%
X188670000Y-58166000D02*
G75*
G03*
X188670000Y-58166000I-100000J0D01*
G01*
%TO.C,U19*%
X112470000Y-96266000D02*
G75*
G03*
X112470000Y-96266000I-100000J0D01*
G01*
%TO.C,U30*%
X169620000Y-115316000D02*
G75*
G03*
X169620000Y-115316000I-100000J0D01*
G01*
%TO.C,U1*%
X74370000Y-58166000D02*
G75*
G03*
X74370000Y-58166000I-100000J0D01*
G01*
%TO.C,U11*%
X112470000Y-77216000D02*
G75*
G03*
X112470000Y-77216000I-100000J0D01*
G01*
%TO.C,U26*%
X93420000Y-115316000D02*
G75*
G03*
X93420000Y-115316000I-100000J0D01*
G01*
%TO.C,U24*%
X207720000Y-96266000D02*
G75*
G03*
X207720000Y-96266000I-100000J0D01*
G01*
%TO.C,U21*%
X150570000Y-96266000D02*
G75*
G03*
X150570000Y-96266000I-100000J0D01*
G01*
%TO.C,U27*%
X112470000Y-115316000D02*
G75*
G03*
X112470000Y-115316000I-100000J0D01*
G01*
%TO.C,U13*%
X150570000Y-77216000D02*
G75*
G03*
X150570000Y-77216000I-100000J0D01*
G01*
D13*
%TO.C,C9*%
X64090733Y-76202000D02*
X64383267Y-76202000D01*
X64090733Y-75182000D02*
X64383267Y-75182000D01*
%TO.C,R5*%
X227457724Y-79770500D02*
X226948276Y-79770500D01*
X227457724Y-78725500D02*
X226948276Y-78725500D01*
%TO.C,C7*%
X178364233Y-57152000D02*
X178656767Y-57152000D01*
X178364233Y-56132000D02*
X178656767Y-56132000D01*
%TO.C,C2*%
X83114233Y-57152000D02*
X83406767Y-57152000D01*
X83114233Y-56132000D02*
X83406767Y-56132000D01*
%TO.C,C20*%
X121240733Y-95252000D02*
X121533267Y-95252000D01*
X121240733Y-94232000D02*
X121533267Y-94232000D01*
%TO.C,C24*%
X197440733Y-95252000D02*
X197733267Y-95252000D01*
X197440733Y-94232000D02*
X197733267Y-94232000D01*
%TO.C,C18*%
X83140733Y-95252000D02*
X83433267Y-95252000D01*
X83140733Y-94232000D02*
X83433267Y-94232000D01*
%TO.C,C1*%
X64115733Y-56132000D02*
X64408267Y-56132000D01*
X64115733Y-57152000D02*
X64408267Y-57152000D01*
%TO.C,R1*%
X222518500Y-97027276D02*
X222518500Y-97536724D01*
X221473500Y-97027276D02*
X221473500Y-97536724D01*
D12*
%TO.C,IC2*%
X215810000Y-93290000D02*
X223610000Y-93290000D01*
X223860000Y-95115000D02*
X223860000Y-93640000D01*
X223610000Y-93290000D02*
X223610000Y-89590000D01*
X223610000Y-89590000D02*
X215810000Y-89590000D01*
X215810000Y-89590000D02*
X215810000Y-93290000D01*
D13*
%TO.C,C19*%
X102190733Y-95252000D02*
X102483267Y-95252000D01*
X102190733Y-94232000D02*
X102483267Y-94232000D01*
%TO.C,C22*%
X159340733Y-94232000D02*
X159633267Y-94232000D01*
X159340733Y-95252000D02*
X159633267Y-95252000D01*
%TO.C,C11*%
X102190733Y-76202000D02*
X102483267Y-76202000D01*
X102190733Y-75182000D02*
X102483267Y-75182000D01*
%TO.C,C25*%
X64090733Y-113282000D02*
X64383267Y-113282000D01*
X64090733Y-114302000D02*
X64383267Y-114302000D01*
%TO.C,R10*%
X221629500Y-42418724D02*
X221629500Y-41909276D01*
X220584500Y-42418724D02*
X220584500Y-41909276D01*
%TO.C,C28*%
X121240733Y-113282000D02*
X121533267Y-113282000D01*
X121240733Y-114302000D02*
X121533267Y-114302000D01*
%TO.C,C5*%
X140264233Y-57152000D02*
X140556767Y-57152000D01*
X140264233Y-56132000D02*
X140556767Y-56132000D01*
D12*
%TO.C,IC1*%
X215810000Y-51490000D02*
X215810000Y-55190000D01*
X223610000Y-55190000D02*
X223610000Y-51490000D01*
X223610000Y-51490000D02*
X215810000Y-51490000D01*
X223860000Y-57015000D02*
X223860000Y-55540000D01*
X215810000Y-55190000D02*
X223610000Y-55190000D01*
D13*
%TO.C,C35*%
X224770733Y-65784000D02*
X225063267Y-65784000D01*
X224770733Y-66804000D02*
X225063267Y-66804000D01*
%TO.C,R6*%
X229996276Y-80249500D02*
X230505724Y-80249500D01*
X229996276Y-81294500D02*
X230505724Y-81294500D01*
%TO.C,R2*%
X222518500Y-58927276D02*
X222518500Y-59436724D01*
X221473500Y-58927276D02*
X221473500Y-59436724D01*
%TO.C,C14*%
X159340733Y-75182000D02*
X159633267Y-75182000D01*
X159340733Y-76202000D02*
X159633267Y-76202000D01*
%TO.C,C34*%
X224809267Y-98681000D02*
X224516733Y-98681000D01*
X224809267Y-97661000D02*
X224516733Y-97661000D01*
%TO.C,C32*%
X197492233Y-114302000D02*
X197784767Y-114302000D01*
X197492233Y-113282000D02*
X197784767Y-113282000D01*
%TO.C,C13*%
X140290733Y-75182000D02*
X140583267Y-75182000D01*
X140290733Y-76202000D02*
X140583267Y-76202000D01*
%TO.C,C17*%
X64090733Y-95252000D02*
X64383267Y-95252000D01*
X64090733Y-94232000D02*
X64383267Y-94232000D01*
%TO.C,C16*%
X197440733Y-76202000D02*
X197733267Y-76202000D01*
X197440733Y-75182000D02*
X197733267Y-75182000D01*
%TO.C,R9*%
X223153500Y-42418724D02*
X223153500Y-41909276D01*
X222108500Y-42418724D02*
X222108500Y-41909276D01*
%TO.C,C21*%
X140290733Y-94232000D02*
X140583267Y-94232000D01*
X140290733Y-95252000D02*
X140583267Y-95252000D01*
%TO.C,C27*%
X102190733Y-113282000D02*
X102483267Y-113282000D01*
X102190733Y-114302000D02*
X102483267Y-114302000D01*
%TO.C,C33*%
X224909767Y-59561000D02*
X224617233Y-59561000D01*
X224909767Y-60581000D02*
X224617233Y-60581000D01*
%TO.C,C29*%
X140342233Y-114302000D02*
X140634767Y-114302000D01*
X140342233Y-113282000D02*
X140634767Y-113282000D01*
D12*
%TO.C,IC3*%
X232116000Y-71065000D02*
X232116000Y-67365000D01*
X227116000Y-67365000D02*
X227116000Y-71065000D01*
X232116000Y-67365000D02*
X227116000Y-67365000D01*
X227091000Y-65540000D02*
X227091000Y-67015000D01*
X227116000Y-71065000D02*
X232116000Y-71065000D01*
D13*
%TO.C,C31*%
X178390733Y-114302000D02*
X178683267Y-114302000D01*
X178390733Y-113282000D02*
X178683267Y-113282000D01*
%TO.C,C3*%
X102164233Y-57152000D02*
X102456767Y-57152000D01*
X102164233Y-56132000D02*
X102456767Y-56132000D01*
%TO.C,R8*%
X222630276Y-46086500D02*
X223139724Y-46086500D01*
X222630276Y-47131500D02*
X223139724Y-47131500D01*
%TO.C,C30*%
X159340733Y-114302000D02*
X159633267Y-114302000D01*
X159340733Y-113282000D02*
X159633267Y-113282000D01*
%TO.C,C26*%
X83140733Y-113282000D02*
X83433267Y-113282000D01*
X83140733Y-114302000D02*
X83433267Y-114302000D01*
%TO.C,C6*%
X159340733Y-57152000D02*
X159633267Y-57152000D01*
X159340733Y-56132000D02*
X159633267Y-56132000D01*
%TO.C,C12*%
X121240733Y-75182000D02*
X121533267Y-75182000D01*
X121240733Y-76202000D02*
X121533267Y-76202000D01*
%TO.C,C10*%
X83140733Y-75182000D02*
X83433267Y-75182000D01*
X83140733Y-76202000D02*
X83433267Y-76202000D01*
%TO.C,R7*%
X222630276Y-47610500D02*
X223139724Y-47610500D01*
X222630276Y-48655500D02*
X223139724Y-48655500D01*
%TO.C,C8*%
X197414233Y-57152000D02*
X197706767Y-57152000D01*
X197414233Y-56132000D02*
X197706767Y-56132000D01*
%TO.C,C23*%
X178390733Y-94232000D02*
X178683267Y-94232000D01*
X178390733Y-95252000D02*
X178683267Y-95252000D01*
%TO.C,C4*%
X121265733Y-56132000D02*
X121558267Y-56132000D01*
X121265733Y-57152000D02*
X121558267Y-57152000D01*
%TO.C,C15*%
X178417233Y-75182000D02*
X178709767Y-75182000D01*
X178417233Y-76202000D02*
X178709767Y-76202000D01*
%TO.C,C36*%
X226675733Y-74166000D02*
X226968267Y-74166000D01*
X226675733Y-75186000D02*
X226968267Y-75186000D01*
%TO.C,R11*%
X233909776Y-71613500D02*
X234419224Y-71613500D01*
X233909776Y-72658500D02*
X234419224Y-72658500D01*
%TD*%
%LPC*%
D14*
%TO.C,U3*%
X113806000Y-52705000D03*
X102806000Y-52705000D03*
D15*
X108306000Y-52705000D03*
D16*
X113306000Y-48955000D03*
X110846000Y-47625000D03*
X104496000Y-50165000D03*
X108306000Y-46755000D03*
D17*
X105031000Y-46755000D03*
D18*
X100745944Y-50165000D03*
D17*
X114596000Y-47625000D03*
X116581000Y-48955000D03*
D19*
X111006000Y-56655000D03*
X111006000Y-58155000D03*
X105606000Y-58155000D03*
X105606000Y-56655000D03*
%TD*%
D16*
%TO.C,U15*%
X184506000Y-65805000D03*
X187046000Y-66675000D03*
X189506000Y-68005000D03*
D15*
X184506000Y-71755000D03*
D14*
X179006000Y-71755000D03*
D16*
X180696000Y-69215000D03*
D14*
X190006000Y-71755000D03*
D17*
X181231000Y-65805000D03*
D18*
X176945944Y-69215000D03*
D17*
X190796000Y-66675000D03*
X192781000Y-68005000D03*
D19*
X187206000Y-75705000D03*
X187206000Y-77205000D03*
X181806000Y-77205000D03*
X181806000Y-75705000D03*
%TD*%
D16*
%TO.C,U14*%
X161646000Y-69215000D03*
X165456000Y-65805000D03*
D15*
X165456000Y-71755000D03*
D16*
X170456000Y-68005000D03*
D14*
X159956000Y-71755000D03*
X170956000Y-71755000D03*
D16*
X167996000Y-66675000D03*
D18*
X157895944Y-69215000D03*
D17*
X162181000Y-65805000D03*
X171746000Y-66675000D03*
X173731000Y-68005000D03*
D19*
X168156000Y-75705000D03*
X168156000Y-77205000D03*
X162756000Y-77205000D03*
X162756000Y-75705000D03*
%TD*%
D16*
%TO.C,U8*%
X199746000Y-50165000D03*
X206096000Y-47625000D03*
D14*
X209056000Y-52705000D03*
X198056000Y-52705000D03*
D16*
X208556000Y-48955000D03*
D15*
X203556000Y-52705000D03*
D16*
X203556000Y-46755000D03*
D17*
X200281000Y-46755000D03*
D18*
X195995944Y-50165000D03*
D17*
X211831000Y-48955000D03*
X209846000Y-47625000D03*
D19*
X206256000Y-56655000D03*
X206256000Y-58155000D03*
X200856000Y-58155000D03*
X200856000Y-56655000D03*
%TD*%
D14*
%TO.C,U5*%
X151906000Y-52705000D03*
X140906000Y-52705000D03*
D15*
X146406000Y-52705000D03*
D16*
X146406000Y-46755000D03*
X148946000Y-47625000D03*
X151406000Y-48955000D03*
X142596000Y-50165000D03*
D18*
X138845944Y-50165000D03*
D17*
X143131000Y-46755000D03*
X152696000Y-47625000D03*
X154681000Y-48955000D03*
D19*
X149106000Y-56655000D03*
X149106000Y-58155000D03*
X143706000Y-58155000D03*
X143706000Y-56655000D03*
%TD*%
D14*
%TO.C,U22*%
X170956000Y-90805000D03*
D15*
X165456000Y-90805000D03*
D16*
X170456000Y-87055000D03*
D14*
X159956000Y-90805000D03*
D16*
X161646000Y-88265000D03*
X167996000Y-85725000D03*
X165456000Y-84855000D03*
D17*
X162181000Y-84855000D03*
D18*
X157895944Y-88265000D03*
D17*
X173731000Y-87055000D03*
X171746000Y-85725000D03*
D19*
X168156000Y-94755000D03*
X168156000Y-96255000D03*
X162756000Y-96255000D03*
X162756000Y-94755000D03*
%TD*%
D16*
%TO.C,U16*%
X203556000Y-65805000D03*
X199746000Y-69215000D03*
D14*
X198056000Y-71755000D03*
D15*
X203556000Y-71755000D03*
D16*
X206096000Y-66675000D03*
X208556000Y-68005000D03*
D14*
X209056000Y-71755000D03*
D17*
X200281000Y-65805000D03*
D18*
X195995944Y-69215000D03*
D17*
X209846000Y-66675000D03*
X211831000Y-68005000D03*
D19*
X206256000Y-75705000D03*
X206256000Y-77205000D03*
X200856000Y-77205000D03*
X200856000Y-75705000D03*
%TD*%
D14*
%TO.C,U18*%
X83756000Y-90805000D03*
D16*
X91796000Y-85725000D03*
X89256000Y-84855000D03*
D14*
X94756000Y-90805000D03*
D15*
X89256000Y-90805000D03*
D16*
X94256000Y-87055000D03*
X85446000Y-88265000D03*
D18*
X81695944Y-88265000D03*
D17*
X85981000Y-84855000D03*
X97531000Y-87055000D03*
X95546000Y-85725000D03*
D19*
X91956000Y-94755000D03*
X91956000Y-96255000D03*
X86556000Y-96255000D03*
X86556000Y-94755000D03*
%TD*%
D16*
%TO.C,U28*%
X132356000Y-106105000D03*
X123546000Y-107315000D03*
X129896000Y-104775000D03*
D14*
X132856000Y-109855000D03*
D15*
X127356000Y-109855000D03*
D16*
X127356000Y-103905000D03*
D14*
X121856000Y-109855000D03*
D18*
X119795944Y-107315000D03*
D17*
X124081000Y-103905000D03*
X133646000Y-104775000D03*
X135631000Y-106105000D03*
D19*
X130056000Y-113805000D03*
X130056000Y-115305000D03*
X124656000Y-115305000D03*
X124656000Y-113805000D03*
%TD*%
D16*
%TO.C,U17*%
X72746000Y-85725000D03*
D14*
X75706000Y-90805000D03*
D15*
X70206000Y-90805000D03*
D14*
X64706000Y-90805000D03*
D16*
X66396000Y-88265000D03*
X75206000Y-87055000D03*
X70206000Y-84855000D03*
D18*
X62645944Y-88265000D03*
D17*
X66931000Y-84855000D03*
X76496000Y-85725000D03*
X78481000Y-87055000D03*
D19*
X72906000Y-94755000D03*
X72906000Y-96255000D03*
X67506000Y-96255000D03*
X67506000Y-94755000D03*
%TD*%
D16*
%TO.C,U20*%
X127356000Y-84855000D03*
D14*
X121856000Y-90805000D03*
D16*
X129896000Y-85725000D03*
X132356000Y-87055000D03*
D15*
X127356000Y-90805000D03*
D16*
X123546000Y-88265000D03*
D14*
X132856000Y-90805000D03*
D17*
X124081000Y-84855000D03*
D18*
X119795944Y-88265000D03*
D17*
X135631000Y-87055000D03*
X133646000Y-85725000D03*
D19*
X130056000Y-94755000D03*
X130056000Y-96255000D03*
X124656000Y-96255000D03*
X124656000Y-94755000D03*
%TD*%
D14*
%TO.C,U32*%
X198056000Y-109855000D03*
D16*
X206096000Y-104775000D03*
X203556000Y-103905000D03*
X199746000Y-107315000D03*
D15*
X203556000Y-109855000D03*
D16*
X208556000Y-106105000D03*
D14*
X209056000Y-109855000D03*
D18*
X195995944Y-107315000D03*
D17*
X200281000Y-103905000D03*
X211831000Y-106105000D03*
X209846000Y-104775000D03*
D19*
X206256000Y-113805000D03*
X206256000Y-115305000D03*
X200856000Y-115305000D03*
X200856000Y-113805000D03*
%TD*%
D14*
%TO.C,U2*%
X83756000Y-52705000D03*
D16*
X91796000Y-47625000D03*
X89256000Y-46755000D03*
D15*
X89256000Y-52705000D03*
D16*
X94256000Y-48955000D03*
D14*
X94756000Y-52705000D03*
D16*
X85446000Y-50165000D03*
D18*
X81695944Y-50165000D03*
D17*
X85981000Y-46755000D03*
X97531000Y-48955000D03*
X95546000Y-47625000D03*
D19*
X91956000Y-56655000D03*
X91956000Y-58155000D03*
X86556000Y-58155000D03*
X86556000Y-56655000D03*
%TD*%
D16*
%TO.C,U9*%
X72746000Y-66675000D03*
X70206000Y-65805000D03*
D14*
X64706000Y-71755000D03*
D16*
X75206000Y-68005000D03*
X66396000Y-69215000D03*
D15*
X70206000Y-71755000D03*
D14*
X75706000Y-71755000D03*
D18*
X62645944Y-69215000D03*
D17*
X66931000Y-65805000D03*
X78481000Y-68005000D03*
X76496000Y-66675000D03*
D19*
X72906000Y-75705000D03*
X72906000Y-77205000D03*
X67506000Y-77205000D03*
X67506000Y-75705000D03*
%TD*%
D16*
%TO.C,U10*%
X94256000Y-68005000D03*
X89256000Y-65805000D03*
X91796000Y-66675000D03*
D15*
X89256000Y-71755000D03*
D16*
X85446000Y-69215000D03*
D14*
X83756000Y-71755000D03*
X94756000Y-71755000D03*
D18*
X81695944Y-69215000D03*
D17*
X85981000Y-65805000D03*
X95546000Y-66675000D03*
X97531000Y-68005000D03*
D19*
X91956000Y-75705000D03*
X91956000Y-77205000D03*
X86556000Y-77205000D03*
X86556000Y-75705000D03*
%TD*%
D16*
%TO.C,U29*%
X142596000Y-107315000D03*
D14*
X151906000Y-109855000D03*
D15*
X146406000Y-109855000D03*
D14*
X140906000Y-109855000D03*
D16*
X151406000Y-106105000D03*
X148946000Y-104775000D03*
X146406000Y-103905000D03*
D18*
X138845944Y-107315000D03*
D17*
X143131000Y-103905000D03*
X154681000Y-106105000D03*
X152696000Y-104775000D03*
D19*
X149106000Y-113805000D03*
X149106000Y-115305000D03*
X143706000Y-115305000D03*
X143706000Y-113805000D03*
%TD*%
D16*
%TO.C,U25*%
X70206000Y-103905000D03*
D14*
X64706000Y-109855000D03*
D16*
X75206000Y-106105000D03*
X66396000Y-107315000D03*
D14*
X75706000Y-109855000D03*
D15*
X70206000Y-109855000D03*
D16*
X72746000Y-104775000D03*
D17*
X66931000Y-103905000D03*
D18*
X62645944Y-107315000D03*
D17*
X76496000Y-104775000D03*
X78481000Y-106105000D03*
D19*
X72906000Y-113805000D03*
X72906000Y-115305000D03*
X67506000Y-115305000D03*
X67506000Y-113805000D03*
%TD*%
D14*
%TO.C,U23*%
X179006000Y-90805000D03*
D16*
X180696000Y-88265000D03*
D15*
X184506000Y-90805000D03*
D16*
X187046000Y-85725000D03*
D14*
X190006000Y-90805000D03*
D16*
X184506000Y-84855000D03*
X189506000Y-87055000D03*
D18*
X176945944Y-88265000D03*
D17*
X181231000Y-84855000D03*
X190796000Y-85725000D03*
X192781000Y-87055000D03*
D19*
X187206000Y-94755000D03*
X187206000Y-96255000D03*
X181806000Y-96255000D03*
X181806000Y-94755000D03*
%TD*%
D16*
%TO.C,U31*%
X189506000Y-106105000D03*
D14*
X190006000Y-109855000D03*
D16*
X180696000Y-107315000D03*
D15*
X184506000Y-109855000D03*
D14*
X179006000Y-109855000D03*
D16*
X184506000Y-103905000D03*
X187046000Y-104775000D03*
D17*
X181231000Y-103905000D03*
D18*
X176945944Y-107315000D03*
D17*
X192781000Y-106105000D03*
X190796000Y-104775000D03*
D19*
X187206000Y-113805000D03*
X187206000Y-115305000D03*
X181806000Y-115305000D03*
X181806000Y-113805000D03*
%TD*%
D16*
%TO.C,U6*%
X167996000Y-47625000D03*
X170456000Y-48955000D03*
X165456000Y-46755000D03*
D14*
X170956000Y-52705000D03*
D16*
X161646000Y-50165000D03*
D14*
X159956000Y-52705000D03*
D15*
X165456000Y-52705000D03*
D18*
X157895944Y-50165000D03*
D17*
X162181000Y-46755000D03*
X173731000Y-48955000D03*
X171746000Y-47625000D03*
D19*
X168156000Y-56655000D03*
X168156000Y-58155000D03*
X162756000Y-58155000D03*
X162756000Y-56655000D03*
%TD*%
D20*
%TO.C,J2*%
X225557000Y-89027000D03*
D21*
X226827000Y-89027000D03*
X228097000Y-89027000D03*
X229367000Y-89027000D03*
%TD*%
D14*
%TO.C,U12*%
X121856000Y-71755000D03*
D16*
X132356000Y-68005000D03*
X123546000Y-69215000D03*
X127356000Y-65805000D03*
D15*
X127356000Y-71755000D03*
D16*
X129896000Y-66675000D03*
D14*
X132856000Y-71755000D03*
D17*
X124081000Y-65805000D03*
D18*
X119795944Y-69215000D03*
D17*
X135631000Y-68005000D03*
X133646000Y-66675000D03*
D19*
X130056000Y-75705000D03*
X130056000Y-77205000D03*
X124656000Y-77205000D03*
X124656000Y-75705000D03*
%TD*%
D15*
%TO.C,U4*%
X127356000Y-52705000D03*
D14*
X121856000Y-52705000D03*
X132856000Y-52705000D03*
D16*
X127356000Y-46755000D03*
X129896000Y-47625000D03*
X132356000Y-48955000D03*
X123546000Y-50165000D03*
D17*
X124081000Y-46755000D03*
D18*
X119795944Y-50165000D03*
D17*
X135631000Y-48955000D03*
X133646000Y-47625000D03*
D19*
X130056000Y-56655000D03*
X130056000Y-58155000D03*
X124656000Y-58155000D03*
X124656000Y-56655000D03*
%TD*%
D16*
%TO.C,U7*%
X187046000Y-47625000D03*
X180696000Y-50165000D03*
D14*
X190006000Y-52705000D03*
D16*
X184506000Y-46755000D03*
X189506000Y-48955000D03*
D14*
X179006000Y-52705000D03*
D15*
X184506000Y-52705000D03*
D17*
X181231000Y-46755000D03*
D18*
X176945944Y-50165000D03*
D17*
X192781000Y-48955000D03*
X190796000Y-47625000D03*
D19*
X187206000Y-56655000D03*
X187206000Y-58155000D03*
X181806000Y-58155000D03*
X181806000Y-56655000D03*
%TD*%
D20*
%TO.C,J3*%
X225557000Y-93726000D03*
D21*
X226827000Y-93726000D03*
X228097000Y-93726000D03*
X229367000Y-93726000D03*
%TD*%
D16*
%TO.C,U19*%
X108306000Y-84855000D03*
D14*
X113806000Y-90805000D03*
D16*
X104496000Y-88265000D03*
D15*
X108306000Y-90805000D03*
D16*
X110846000Y-85725000D03*
D14*
X102806000Y-90805000D03*
D16*
X113306000Y-87055000D03*
D18*
X100745944Y-88265000D03*
D17*
X105031000Y-84855000D03*
X116581000Y-87055000D03*
X114596000Y-85725000D03*
D19*
X111006000Y-94755000D03*
X111006000Y-96255000D03*
X105606000Y-96255000D03*
X105606000Y-94755000D03*
%TD*%
D20*
%TO.C,J1*%
X225557000Y-83820000D03*
D21*
X226827000Y-83820000D03*
X228097000Y-83820000D03*
X229367000Y-83820000D03*
%TD*%
D14*
%TO.C,U30*%
X170956000Y-109855000D03*
D16*
X167996000Y-104775000D03*
X161646000Y-107315000D03*
X170456000Y-106105000D03*
D15*
X165456000Y-109855000D03*
D14*
X159956000Y-109855000D03*
D16*
X165456000Y-103905000D03*
D17*
X162181000Y-103905000D03*
D18*
X157895944Y-107315000D03*
D17*
X173731000Y-106105000D03*
X171746000Y-104775000D03*
D19*
X168156000Y-113805000D03*
X168156000Y-115305000D03*
X162756000Y-115305000D03*
X162756000Y-113805000D03*
%TD*%
D16*
%TO.C,U1*%
X75206000Y-48955000D03*
X66396000Y-50165000D03*
X72746000Y-47625000D03*
D14*
X64706000Y-52705000D03*
D15*
X70206000Y-52705000D03*
D16*
X70206000Y-46755000D03*
D14*
X75706000Y-52705000D03*
D17*
X66931000Y-46755000D03*
D18*
X62645944Y-50165000D03*
D17*
X76496000Y-47625000D03*
X78481000Y-48955000D03*
D19*
X72906000Y-56655000D03*
X72906000Y-58155000D03*
X67506000Y-58155000D03*
X67506000Y-56655000D03*
%TD*%
D15*
%TO.C,U11*%
X108306000Y-71755000D03*
D16*
X108306000Y-65805000D03*
X110846000Y-66675000D03*
X104496000Y-69215000D03*
D14*
X102806000Y-71755000D03*
X113806000Y-71755000D03*
D16*
X113306000Y-68005000D03*
D17*
X105031000Y-65805000D03*
D18*
X100745944Y-69215000D03*
D17*
X116581000Y-68005000D03*
X114596000Y-66675000D03*
D19*
X111006000Y-75705000D03*
X111006000Y-77205000D03*
X105606000Y-77205000D03*
X105606000Y-75705000D03*
%TD*%
D16*
%TO.C,U26*%
X89256000Y-103905000D03*
D14*
X83756000Y-109855000D03*
D16*
X94256000Y-106105000D03*
X85446000Y-107315000D03*
D15*
X89256000Y-109855000D03*
D16*
X91796000Y-104775000D03*
D14*
X94756000Y-109855000D03*
D17*
X85981000Y-103905000D03*
D18*
X81695944Y-107315000D03*
D17*
X95546000Y-104775000D03*
X97531000Y-106105000D03*
D19*
X91956000Y-113805000D03*
X91956000Y-115305000D03*
X86556000Y-115305000D03*
X86556000Y-113805000D03*
%TD*%
D15*
%TO.C,U24*%
X203556000Y-90805000D03*
D14*
X209056000Y-90805000D03*
D16*
X199746000Y-88265000D03*
X203556000Y-84855000D03*
X208556000Y-87055000D03*
X206096000Y-85725000D03*
D14*
X198056000Y-90805000D03*
D17*
X200281000Y-84855000D03*
D18*
X195995944Y-88265000D03*
D17*
X209846000Y-85725000D03*
X211831000Y-87055000D03*
D19*
X206256000Y-94755000D03*
X206256000Y-96255000D03*
X200856000Y-96255000D03*
X200856000Y-94755000D03*
%TD*%
D16*
%TO.C,U21*%
X148946000Y-85725000D03*
D14*
X151906000Y-90805000D03*
X140906000Y-90805000D03*
D16*
X142596000Y-88265000D03*
D15*
X146406000Y-90805000D03*
D16*
X146406000Y-84855000D03*
X151406000Y-87055000D03*
D17*
X143131000Y-84855000D03*
D18*
X138845944Y-88265000D03*
D17*
X154681000Y-87055000D03*
X152696000Y-85725000D03*
D19*
X149106000Y-94755000D03*
X149106000Y-96255000D03*
X143706000Y-96255000D03*
X143706000Y-94755000D03*
%TD*%
D15*
%TO.C,U27*%
X108306000Y-109855000D03*
D16*
X104496000Y-107315000D03*
X108306000Y-103905000D03*
D14*
X113806000Y-109855000D03*
D16*
X113306000Y-106105000D03*
D14*
X102806000Y-109855000D03*
D16*
X110846000Y-104775000D03*
D18*
X100745944Y-107315000D03*
D17*
X105031000Y-103905000D03*
X114596000Y-104775000D03*
X116581000Y-106105000D03*
D19*
X111006000Y-113805000D03*
X111006000Y-115305000D03*
X105606000Y-115305000D03*
X105606000Y-113805000D03*
%TD*%
D15*
%TO.C,U13*%
X146406000Y-71755000D03*
D14*
X151906000Y-71755000D03*
X140906000Y-71755000D03*
D16*
X142596000Y-69215000D03*
X148946000Y-66675000D03*
X151406000Y-68005000D03*
X146406000Y-65805000D03*
D18*
X138845944Y-69215000D03*
D17*
X143131000Y-65805000D03*
X152696000Y-66675000D03*
X154681000Y-68005000D03*
D19*
X149106000Y-75705000D03*
X149106000Y-77205000D03*
X143706000Y-77205000D03*
X143706000Y-75705000D03*
%TD*%
D22*
%TO.C,C9*%
X63374500Y-75692000D03*
X65099500Y-75692000D03*
%TD*%
D23*
%TO.C,R5*%
X228115500Y-79248000D03*
X226290500Y-79248000D03*
%TD*%
D22*
%TO.C,C7*%
X177648000Y-56642000D03*
X179373000Y-56642000D03*
%TD*%
%TO.C,C2*%
X82398000Y-56642000D03*
X84123000Y-56642000D03*
%TD*%
%TO.C,C20*%
X120524500Y-94742000D03*
X122249500Y-94742000D03*
%TD*%
%TO.C,C24*%
X196724500Y-94742000D03*
X198449500Y-94742000D03*
%TD*%
%TO.C,C18*%
X82424500Y-94742000D03*
X84149500Y-94742000D03*
%TD*%
%TO.C,C1*%
X63399500Y-56642000D03*
X65124500Y-56642000D03*
%TD*%
D24*
%TO.C,R1*%
X221996000Y-96369500D03*
X221996000Y-98194500D03*
%TD*%
D25*
%TO.C,IC2*%
X223285000Y-94378000D03*
X222635000Y-94378000D03*
X221985000Y-94378000D03*
X221335000Y-94378000D03*
X220685000Y-94378000D03*
X220035000Y-94378000D03*
X219385000Y-94378000D03*
X218735000Y-94378000D03*
X218085000Y-94378000D03*
X217435000Y-94378000D03*
X216785000Y-94378000D03*
X216135000Y-94378000D03*
X216135000Y-88502000D03*
X216785000Y-88502000D03*
X217435000Y-88502000D03*
X218085000Y-88502000D03*
X218735000Y-88502000D03*
X219385000Y-88502000D03*
X220035000Y-88502000D03*
X220685000Y-88502000D03*
X221335000Y-88502000D03*
X221985000Y-88502000D03*
X222635000Y-88502000D03*
X223285000Y-88502000D03*
%TD*%
D22*
%TO.C,C19*%
X101474500Y-94742000D03*
X103199500Y-94742000D03*
%TD*%
%TO.C,C22*%
X158624500Y-94742000D03*
X160349500Y-94742000D03*
%TD*%
%TO.C,C11*%
X101474500Y-75692000D03*
X103199500Y-75692000D03*
%TD*%
%TO.C,C25*%
X63374500Y-113792000D03*
X65099500Y-113792000D03*
%TD*%
D26*
%TO.C,R10*%
X221107000Y-43076500D03*
X221107000Y-41251500D03*
%TD*%
D22*
%TO.C,C28*%
X120524500Y-113792000D03*
X122249500Y-113792000D03*
%TD*%
%TO.C,C5*%
X139548000Y-56642000D03*
X141273000Y-56642000D03*
%TD*%
D25*
%TO.C,IC1*%
X223285000Y-56278000D03*
X222635000Y-56278000D03*
X221985000Y-56278000D03*
X221335000Y-56278000D03*
X220685000Y-56278000D03*
X220035000Y-56278000D03*
X219385000Y-56278000D03*
X218735000Y-56278000D03*
X218085000Y-56278000D03*
X217435000Y-56278000D03*
X216785000Y-56278000D03*
X216135000Y-56278000D03*
X216135000Y-50402000D03*
X216785000Y-50402000D03*
X217435000Y-50402000D03*
X218085000Y-50402000D03*
X218735000Y-50402000D03*
X219385000Y-50402000D03*
X220035000Y-50402000D03*
X220685000Y-50402000D03*
X221335000Y-50402000D03*
X221985000Y-50402000D03*
X222635000Y-50402000D03*
X223285000Y-50402000D03*
%TD*%
D22*
%TO.C,C35*%
X224054500Y-66294000D03*
X225779500Y-66294000D03*
%TD*%
D27*
%TO.C,R6*%
X229338500Y-80772000D03*
X231163500Y-80772000D03*
%TD*%
D24*
%TO.C,R2*%
X221996000Y-58269500D03*
X221996000Y-60094500D03*
%TD*%
D22*
%TO.C,C14*%
X158624500Y-75692000D03*
X160349500Y-75692000D03*
%TD*%
D28*
%TO.C,C34*%
X225525500Y-98171000D03*
X223800500Y-98171000D03*
%TD*%
D22*
%TO.C,C32*%
X196776000Y-113792000D03*
X198501000Y-113792000D03*
%TD*%
%TO.C,C13*%
X139574500Y-75692000D03*
X141299500Y-75692000D03*
%TD*%
%TO.C,C17*%
X63374500Y-94742000D03*
X65099500Y-94742000D03*
%TD*%
%TO.C,C16*%
X196724500Y-75692000D03*
X198449500Y-75692000D03*
%TD*%
D26*
%TO.C,R9*%
X222631000Y-43076500D03*
X222631000Y-41251500D03*
%TD*%
D22*
%TO.C,C21*%
X139574500Y-94742000D03*
X141299500Y-94742000D03*
%TD*%
%TO.C,C27*%
X101474500Y-113792000D03*
X103199500Y-113792000D03*
%TD*%
D28*
%TO.C,C33*%
X225626000Y-60071000D03*
X223901000Y-60071000D03*
%TD*%
D22*
%TO.C,C29*%
X139626000Y-113792000D03*
X141351000Y-113792000D03*
%TD*%
D25*
%TO.C,IC3*%
X227666000Y-66277000D03*
X228316000Y-66277000D03*
X228966000Y-66277000D03*
X229616000Y-66277000D03*
X230266000Y-66277000D03*
X230916000Y-66277000D03*
X231566000Y-66277000D03*
X231566000Y-72153000D03*
X230916000Y-72153000D03*
X230266000Y-72153000D03*
X229616000Y-72153000D03*
X228966000Y-72153000D03*
X228316000Y-72153000D03*
X227666000Y-72153000D03*
%TD*%
D22*
%TO.C,C31*%
X177674500Y-113792000D03*
X179399500Y-113792000D03*
%TD*%
%TO.C,C3*%
X101448000Y-56642000D03*
X103173000Y-56642000D03*
%TD*%
D27*
%TO.C,R8*%
X221972500Y-46609000D03*
X223797500Y-46609000D03*
%TD*%
D22*
%TO.C,C30*%
X158624500Y-113792000D03*
X160349500Y-113792000D03*
%TD*%
%TO.C,C26*%
X82424500Y-113792000D03*
X84149500Y-113792000D03*
%TD*%
%TO.C,C6*%
X158624500Y-56642000D03*
X160349500Y-56642000D03*
%TD*%
%TO.C,C12*%
X120524500Y-75692000D03*
X122249500Y-75692000D03*
%TD*%
%TO.C,C10*%
X82424500Y-75692000D03*
X84149500Y-75692000D03*
%TD*%
D27*
%TO.C,R7*%
X221972500Y-48133000D03*
X223797500Y-48133000D03*
%TD*%
D22*
%TO.C,C8*%
X196698000Y-56642000D03*
X198423000Y-56642000D03*
%TD*%
%TO.C,C23*%
X177674500Y-94742000D03*
X179399500Y-94742000D03*
%TD*%
%TO.C,C4*%
X120549500Y-56642000D03*
X122274500Y-56642000D03*
%TD*%
%TO.C,C15*%
X177701000Y-75692000D03*
X179426000Y-75692000D03*
%TD*%
%TO.C,C36*%
X225959500Y-74676000D03*
X227684500Y-74676000D03*
%TD*%
D27*
%TO.C,R11*%
X233252000Y-72136000D03*
X235077000Y-72136000D03*
%TD*%
M02*
